0
SECTION
2
HEADER
9
$INSUNITS
70
4
9
$ACADVER
1
AC1014
9
$HANDSEED
5
FFFF
0
ENDSEC
0
SECTION
2
TABLES
0
TABLE
2
VPORT
5
8
100
AcDbSymbolTable
0
ENDTAB
0
TABLE
2
LTYPE
5
5
100
AcDbSymbolTable
0
LTYPE
5
14
100
AcDbSymbolTableRecord
100
AcDbLinetypeTableRecord
2
BYBLOCK
70
0
0
LTYPE
5
15
100
AcDbSymbolTableRecord
100
AcDbLinetypeTableRecord
2
BYLAYER
70
0
0
ENDTAB
0
TABLE
2
LAYER
5
2
100
AcDbSymbolTable
70
2
0
LAYER
5
50
100
AcDbSymbolTableRecord
100
AcDbLayerTableRecord
2
0
70
0
6
CONTINUOUS
0
ENDTAB
0
TABLE
2
STYLE
5
3
100
AcDbSymbolTable
70
1
0
STYLE
5
11
100
AcDbSymbolTableRecord
100
AcDbTextStyleTableRecord
2
STANDARD
70
0
0
ENDTAB
0
TABLE
2
VIEW
5
6
100
AcDbSymbolTable
70
0
0
ENDTAB
0
TABLE
2
UCS
5
7
100
AcDbSymbolTable
70
0
0
ENDTAB
0
TABLE
2
APPID
5
9
100
AcDbSymbolTable
70
2
0
APPID
5
12
100
AcDbSymbolTableRecord
100
AcDbRegAppTableRecord
2
ACAD
70
0
0
ENDTAB
0
TABLE
2
DIMSTYLE
5
A
100
AcDbSymbolTable
70
1
0
ENDTAB
0
TABLE
2
BLOCK_RECORD
5
1
100
AcDbSymbolTable
70
1
0
BLOCK_RECORD
5
1F
100
AcDbSymbolTableRecord
100
AcDbBlockTableRecord
2
*MODEL_SPACE
0
BLOCK_RECORD
5
1B
100
AcDbSymbolTableRecord
100
AcDbBlockTableRecord
2
*PAPER_SPACE
0
ENDTAB
0
ENDSEC
0
SECTION
2
BLOCKS
0
BLOCK
5
20
100
AcDbEntity
100
AcDbBlockBegin
2
*MODEL_SPACE
0
ENDBLK
5
21
100
AcDbEntity
100
AcDbBlockEnd
0
BLOCK
5
1C
100
AcDbEntity
100
AcDbBlockBegin
2
*PAPER_SPACE
0
ENDBLK
5
1D
100
AcDbEntity
100
AcDbBlockEnd
0
ENDSEC
0
SECTION
2
ENTITIES
0
LINE
5
100
100
AcDbEntity
8
0
100
AcDbLine
10
-36
20
-27.499999999999993
30
0
11
-26.999999999999993
21
-27.499999999999993
31
0
0
LINE
5
101
100
AcDbEntity
8
0
100
AcDbLine
10
-36.499999999999993
20
28.499999999999986
30
0
11
-36.499999999999993
21
-26.999999999999993
31
0
0
ARC
5
102
100
AcDbEntity
8
0
100
AcDbCircle
10
-36
20
-26.999999999999993
30
0
40
0.49999999999999822
210
0
220
0
230
1
100
AcDbArc
50
180
51
270
0
ARC
5
103
100
AcDbEntity
8
0
100
AcDbCircle
10
-34.499999999999993
20
28.499999999999986
30
0
40
2.0000000000000018
210
0
220
-0
230
1
100
AcDbArc
50
90
51
180
0
LINE
5
104
100
AcDbEntity
8
0
100
AcDbLine
10
34.5
20
30.499999999999989
30
0
11
-34.499999999999993
21
30.499999999999989
31
0
0
ARC
5
105
100
AcDbEntity
8
0
100
AcDbCircle
10
34.5
20
28.499999999999986
30
0
40
1.9999999999999973
210
0
220
-0
230
1
100
AcDbArc
50
0
51
90
0
LINE
5
106
100
AcDbEntity
8
0
100
AcDbLine
10
36.499999999999993
20
-26.999999999999993
30
0
11
36.5
21
28.499999999999986
31
0
0
ARC
5
107
100
AcDbEntity
8
0
100
AcDbCircle
10
36
20
-26.999999999999993
30
0
40
0.49999999999999822
210
-0
220
0
230
1
100
AcDbArc
50
-90
51
0
0
LINE
5
108
100
AcDbEntity
8
0
100
AcDbLine
10
26.999999999999993
20
-27.499999999999993
30
0
11
36
21
-27.499999999999993
31
0
0
LINE
5
109
100
AcDbEntity
8
0
100
AcDbLine
10
33.499999999999986
20
-25.499999999999989
30
0
11
26.999999999999993
21
-25.499999999999989
31
0
0
ARC
5
110
100
AcDbEntity
8
0
100
AcDbCircle
10
33.499999999999979
20
-24.499999999999975
30
0
40
1.0000000000000142
210
0
220
0
230
1
100
AcDbArc
50
270.0000000000004
51
360
0
LINE
5
111
100
AcDbEntity
8
0
100
AcDbLine
10
34.5
20
27.499999999999993
30
0
11
34.499999999999993
21
-24.499999999999986
31
0
0
ARC
5
112
100
AcDbEntity
8
0
100
AcDbCircle
10
33.499999999999993
20
27.499999999999996
30
0
40
1.0000000000000098
210
0
220
0
230
1
100
AcDbArc
50
0
51
90.000000000000398
0
LINE
5
113
100
AcDbEntity
8
0
100
AcDbLine
10
-33.499999999999986
20
28.499999999999986
30
0
11
33.499999999999986
21
28.5
31
0
0
ARC
5
114
100
AcDbEntity
8
0
100
AcDbCircle
10
-33.499999999999993
20
27.499999999999979
30
0
40
1.0000000000000098
210
0
220
-0
230
1
100
AcDbArc
50
89.999999999999588
51
180
0
LINE
5
115
100
AcDbEntity
8
0
100
AcDbLine
10
-34.499999999999993
20
-24.499999999999979
30
0
11
-34.5
21
27.499999999999972
31
0
0
ARC
5
116
100
AcDbEntity
8
0
100
AcDbCircle
10
-33.499999999999986
20
-24.499999999999979
30
0
40
1.0000000000000098
210
0
220
0
230
1
100
AcDbArc
50
180
51
270
0
LINE
5
117
100
AcDbEntity
8
0
100
AcDbLine
10
-26.999999999999993
20
-25.499999999999989
30
0
11
-33.499999999999986
21
-25.499999999999989
31
0
0
LINE
5
118
100
AcDbEntity
8
0
100
AcDbLine
10
26.999999999999993
20
-25.499999999999989
30
0
11
-26.999999999999993
21
-25.499999999999989
31
0
0
LINE
5
119
100
AcDbEntity
8
0
100
AcDbLine
10
-26.999999999999993
20
-27.499999999999993
30
0
11
26.999999999999993
21
-27.499999999999993
31
0
0
LINE
5
120
100
AcDbEntity
8
0
100
AcDbLine
10
-26.499999999999993
20
-25.499999999999989
30
0
11
-26.499999999999993
21
-27.499999999999993
31
0
0
LINE
5
121
100
AcDbEntity
8
0
100
AcDbLine
10
26.499999999999993
20
-25.499999999999989
30
0
11
26.499999999999993
21
-27.499999999999993
31
0
0
LINE
5
122
100
AcDbEntity
8
0
100
AcDbLine
10
26.999999999999993
20
-26.699999999999989
30
0
11
33.699999999999996
21
-26.699999999999989
31
0
0
LINE
5
123
100
AcDbEntity
8
0
100
AcDbLine
10
35.699999999999996
20
-24.699999999999992
30
0
11
35.699999999999996
21
28.499999999999986
31
0
0
ARC
5
124
100
AcDbEntity
8
0
100
AcDbCircle
10
34.5
20
28.499999999999986
30
0
40
1.1999999999999966
210
0
220
0
230
1
100
AcDbArc
50
0
51
90
0
LINE
5
125
100
AcDbEntity
8
0
100
AcDbLine
10
34.5
20
29.699999999999985
30
0
11
-34.499999999999993
21
29.699999999999989
31
0
0
ARC
5
126
100
AcDbEntity
8
0
100
AcDbCircle
10
-34.499999999999993
20
28.499999999999986
30
0
40
1.2000000000000011
210
0
220
-0
230
1
100
AcDbArc
50
90
51
180
0
LINE
5
127
100
AcDbEntity
8
0
100
AcDbLine
10
-35.699999999999996
20
28.499999999999986
30
0
11
-35.699999999999996
21
-24.699999999999982
31
0
0
LINE
5
128
100
AcDbEntity
8
0
100
AcDbLine
10
-33.699999999999989
20
-26.699999999999989
30
0
11
-26.999999999999993
21
-26.699999999999989
31
0
0
LINE
5
129
100
AcDbEntity
8
0
100
AcDbLine
10
-26.999999999999993
20
-26.699999999999989
30
0
11
-26.499999407678843
21
-26.699999999999989
31
0
0
LINE
5
130
100
AcDbEntity
8
0
100
AcDbLine
10
26.999999999999993
20
-26.699999999999989
30
0
11
26.499999407678843
21
-26.699999999999989
31
0
0
ARC
5
131
100
AcDbEntity
8
0
100
AcDbCircle
10
-33.699999999999989
20
-24.699999999999989
30
0
40
2.0000000000000018
210
0
220
0
230
1
100
AcDbArc
50
180
51
270
0
ARC
5
132
100
AcDbEntity
8
0
100
AcDbCircle
10
33.700000000000017
20
-24.70000000000001
30
0
40
1.9999999999999796
210
0
220
0
230
1
100
AcDbArc
50
-90.000000000000611
51
0
0
LINE
5
133
100
AcDbEntity
8
0
100
AcDbLine
10
19.753699999999998
20
17.659999999999989
30
0
11
26.103799999999985
21
17.659999999999989
31
0
0
LINE
5
134
100
AcDbEntity
8
0
100
AcDbLine
10
18.325000000000003
20
17.659999999999989
30
0
11
19.753699999999998
21
17.659999999999989
31
0
0
LINE
5
135
100
AcDbEntity
8
0
100
AcDbLine
10
16.896199999999979
20
17.659999999999989
30
0
11
18.325000000000003
21
17.659999999999989
31
0
0
LINE
5
136
100
AcDbEntity
8
0
100
AcDbLine
10
16.896199999999979
20
-2.6599999999999913
30
0
11
16.896199999999979
21
17.659999999999989
31
0
0
LINE
5
137
100
AcDbEntity
8
0
100
AcDbLine
10
26.103799999999985
20
17.659999999999989
30
0
11
26.103799999999975
21
9.5637999999999934
31
0
0
LINE
5
138
100
AcDbEntity
8
0
100
AcDbLine
10
26.103799999999975
20
9.5637999999999934
30
0
11
26.103799999999975
21
5.4361999999999888
31
0
0
LINE
5
139
100
AcDbEntity
8
0
100
AcDbLine
10
26.103799999999975
20
5.4361999999999888
30
0
11
26.103799999999975
21
-2.6599999999999913
31
0
0
LINE
5
140
100
AcDbEntity
8
0
100
AcDbLine
10
26.103799999999975
20
-2.6599999999999913
30
0
11
19.753699999999988
21
-2.6599999999999913
31
0
0
LINE
5
141
100
AcDbEntity
8
0
100
AcDbLine
10
19.753699999999988
20
-2.6599999999999913
30
0
11
18.325000000000003
21
-2.6599999999999957
31
0
0
LINE
5
142
100
AcDbEntity
8
0
100
AcDbLine
10
18.325000000000003
20
-2.6599999999999957
30
0
11
16.896199999999979
21
-2.6599999999999913
31
0
0
LINE
5
143
100
AcDbEntity
8
0
100
AcDbLine
10
19.753699999999998
20
-3.8799999999999946
30
0
11
26.103799999999985
21
-3.8799999999999946
31
0
0
LINE
5
144
100
AcDbEntity
8
0
100
AcDbLine
10
18.325000000000003
20
-3.8799999999999946
30
0
11
19.753699999999998
21
-3.8799999999999946
31
0
0
LINE
5
145
100
AcDbEntity
8
0
100
AcDbLine
10
16.896199999999979
20
-3.8799999999999946
30
0
11
18.325000000000003
21
-3.8799999999999946
31
0
0
LINE
5
146
100
AcDbEntity
8
0
100
AcDbLine
10
16.896199999999979
20
-19.11999999999999
30
0
11
16.896199999999979
21
-3.8799999999999946
31
0
0
LINE
5
147
100
AcDbEntity
8
0
100
AcDbLine
10
18.325000000000003
20
-19.11999999999999
30
0
11
16.896199999999979
21
-19.11999999999999
31
0
0
LINE
5
148
100
AcDbEntity
8
0
100
AcDbLine
10
19.753699999999988
20
-19.11999999999999
30
0
11
18.325000000000003
21
-19.11999999999999
31
0
0
LINE
5
149
100
AcDbEntity
8
0
100
AcDbLine
10
26.103799999999975
20
-19.11999999999999
30
0
11
19.753699999999988
21
-19.11999999999999
31
0
0
LINE
5
150
100
AcDbEntity
8
0
100
AcDbLine
10
26.103799999999975
20
-12.769999999999985
30
0
11
26.103799999999975
21
-19.11999999999999
31
0
0
LINE
5
151
100
AcDbEntity
8
0
100
AcDbLine
10
26.103799999999975
20
-10.229999999999993
30
0
11
26.103799999999975
21
-12.769999999999985
31
0
0
LINE
5
152
100
AcDbEntity
8
0
100
AcDbLine
10
26.103799999999985
20
-3.8799999999999946
30
0
11
26.103799999999975
21
-10.229999999999993
31
0
0
LINE
5
153
100
AcDbEntity
8
0
100
AcDbLine
10
-9.659999999999993
20
27.103800000000007
30
0
11
-1.5637999999999996
21
27.103800000000014
31
0
0
LINE
5
154
100
AcDbEntity
8
0
100
AcDbLine
10
-1.5637999999999996
20
27.103800000000014
30
0
11
2.5638000000000005
21
27.103800000000007
31
0
0
LINE
5
155
100
AcDbEntity
8
0
100
AcDbLine
10
-9.659999999999993
20
20.753699999999977
30
0
11
-9.659999999999993
21
27.103800000000007
31
0
0
LINE
5
156
100
AcDbEntity
8
0
100
AcDbLine
10
-9.659999999999993
20
19.32500000000001
30
0
11
-9.659999999999993
21
20.753699999999977
31
0
0
LINE
5
157
100
AcDbEntity
8
0
100
AcDbLine
10
-9.6599999999999895
20
17.896199999999975
30
0
11
-9.659999999999993
21
19.32500000000001
31
0
0
LINE
5
158
100
AcDbEntity
8
0
100
AcDbLine
10
10.659999999999981
20
17.896199999999975
30
0
11
-9.6599999999999895
21
17.896199999999975
31
0
0
LINE
5
159
100
AcDbEntity
8
0
100
AcDbLine
10
10.659999999999981
20
19.325000000000003
30
0
11
10.659999999999981
21
17.896199999999975
31
0
0
LINE
5
160
100
AcDbEntity
8
0
100
AcDbLine
10
10.659999999999981
20
20.753699999999977
30
0
11
10.659999999999981
21
19.325000000000003
31
0
0
LINE
5
161
100
AcDbEntity
8
0
100
AcDbLine
10
10.659999999999981
20
27.103800000000007
30
0
11
10.659999999999981
21
20.753699999999977
31
0
0
LINE
5
162
100
AcDbEntity
8
0
100
AcDbLine
10
2.5638000000000005
20
27.103800000000007
30
0
11
10.659999999999981
21
27.103800000000007
31
0
0
LWPOLYLINE
5
163
100
AcDbEntity
8
0
100
AcDbPolyline
90
10
70
1
43
0.0
10
-1.5638000000000007
20
27.903800000000018
10
-10.459999999999994
20
27.903800000000007
10
-10.459999999999994
20
20.753699999999977
10
-10.459999999999994
20
19.325000000000006
10
-10.459999999999985
20
17.096199999999975
10
11.459999999999981
20
17.096199999999975
10
11.459999999999981
20
19.325000000000003
10
11.459999999999981
20
20.753699999999977
10
11.459999999999981
20
27.903800000000007
10
2.5638000000000023
20
27.903800000000007
0
LWPOLYLINE
5
164
100
AcDbEntity
8
0
100
AcDbPolyline
90
4
70
1
43
0.0
10
26.903799999999983
20
18.459999999999994
10
16.096199999999978
20
18.459999999999994
10
16.096199999999978
20
-19.919999999999991
10
26.903799999999983
20
-19.919999999999991
0
CIRCLE
5
165
100
AcDbEntity
8
0
100
AcDbCircle
10
22.499999999999982
20
23.499999999999996
30
0
40
1.25
210
0
220
0
230
1
0
CIRCLE
5
166
100
AcDbEntity
8
0
100
AcDbCircle
10
22.499999999999982
20
23.499999999999996
30
0
40
3.0000000000000027
210
0
220
0
230
1
0
CIRCLE
5
167
100
AcDbEntity
8
0
100
AcDbCircle
10
-22.499999999999996
20
23.499999999999996
30
0
40
1.2499999999999984
210
0
220
0
230
1
0
CIRCLE
5
168
100
AcDbEntity
8
0
100
AcDbCircle
10
-22.499999999999996
20
23.499999999999996
30
0
40
3
210
0
220
0
230
1
0
CIRCLE
5
169
100
AcDbEntity
8
0
100
AcDbCircle
10
-30.749999999999996
20
-19.499999999999989
30
0
40
1.2500000000000011
210
0
220
0
230
1
0
CIRCLE
5
170
100
AcDbEntity
8
0
100
AcDbCircle
10
-30.749999999999996
20
-19.499999999999989
30
0
40
3.0000000000000018
210
0
220
0
230
1
0
CIRCLE
5
171
100
AcDbEntity
8
0
100
AcDbCircle
10
30.75
20
-19.499999999999989
30
0
40
1.2499999999999998
210
0
220
0
230
1
0
CIRCLE
5
172
100
AcDbEntity
8
0
100
AcDbCircle
10
30.75
20
-19.499999999999989
30
0
40
3.0000000000000018
210
0
220
0
230
1
0
ENDSEC
0
SECTION
2
OBJECTS
0
DICTIONARY
5
C
100
AcDbDictionary
3
ACAD_GROUP
350
D
3
ACAD_MLINESTYLE
350
17
0
DICTIONARY
5
D
100
AcDbDictionary
0
DICTIONARY
5
1A
330
C
100
AcDbDictionary
0
DICTIONARY
5
17
100
AcDbDictionary
0
ENDSEC
0
EOF
