  0
SECTION
  2
HEADER
  9
$ACADVER
  1
AC1009
  9
$FILLMODE
 70
0
  9
$EXTMIN
 10
-7.6435
 20
-11.6635
 30
0.0000
  9
$EXTMAX
 10
60.9835
 20
80.0603
 30
0.0000
  0
ENDSEC
  0
SECTION
  2
TABLES
  0
TABLE
  2
LTYPE
 70
1
  0
LTYPE
  2
CONTINUOUS
 70
64
  3
Solid line
 72
65
 73
0
 40
0
  0
ENDTAB
  0
TABLE
  2
LAYER
 70
255
  0
LAYER
  2
19
 70
64
 62
53
  6
CONTINUOUS
  0
LAYER
  2
20
 70
64
 62
30
  6
CONTINUOUS
  0
LAYER
  2
21
 70
64
 62
253
  6
CONTINUOUS
  0
LAYER
  2
49
 70
64
 62
253
  6
CONTINUOUS
  0
LAYER
  2
51
 70
64
 62
253
  6
CONTINUOUS
  0
ENDTAB
  0
ENDSEC
  0
SECTION
  2
BLOCKS
  0
BLOCK
  8
0
  2
RECT
 70
64
 10
0.0000
 20
0.0000
 30
0.0000
  3
RECT
  0
SOLID
  8
0
 10
-0.5000
 20
-0.5000
 30
0.0000
 11
0.5000
 21
-0.5000
 31
0.0000
 12
-0.5000
 22
0.5000
 32
0.0000
 13
0.5000
 23
0.5000
 33
0.0000
  0
ENDBLK
  8
0
  0
BLOCK
  8
0
  2
PIE
 70
64
 10
0.0000
 20
0.0000
 30
0.0000
  3
PIE
  0
CIRCLE
  8
0
 10
0.0000
 20
0.0000
 30
0.0000
 40
0.5000
  0
ENDBLK
  8
0
  0
BLOCK
  8
0
  2
OCTAGONP
 70
64
 10
0.0000
 20
0.0000
 30
0.0000
  3
OCTAGONP
  0
POLYLINE
  8
0
 66
1
 10
0.0000
 20
0.0000
 30
0.0000
 40
0.0000
 41
0.0000
 70
1
  0
VERTEX
  8
0
 10
-0.5000
 20
-0.2071
 30
0.0000
  0
VERTEX
  8
0
 10
-0.5000
 20
0.2071
 30
0.0000
  0
VERTEX
  8
0
 10
-0.2071
 20
0.5000
 30
0.0000
  0
VERTEX
  8
0
 10
0.2071
 20
0.5000
 30
0.0000
  0
VERTEX
  8
0
 10
0.5000
 20
0.2071
 30
0.0000
  0
VERTEX
  8
0
 10
0.5000
 20
-0.2071
 30
0.0000
  0
VERTEX
  8
0
 10
0.2071
 20
-0.5000
 30
0.0000
  0
VERTEX
  8
0
 10
-0.2071
 20
-0.5000
 30
0.0000
  0
SEQEND
  8
0
  0
ENDBLK
  8
0
  0
BLOCK
  8
0
  2
SQUAREP
 70
64
 10
0.0000
 20
0.0000
 30
0.0000
  3
SQUAREP
  0
SOLID
  8
0
 10
-0.5000
 20
-0.5000
 30
0.0000
 11
0.5000
 21
-0.5000
 31
0.0000
 12
-0.5000
 22
0.5000
 32
0.0000
 13
0.5000
 23
0.5000
 33
0.0000
  0
ENDBLK
  8
0
  0
BLOCK
  8
0
  2
ROUNDP
 70
64
 10
0.0000
 20
0.0000
 30
0.0000
  3
ROUNDP
  0
CIRCLE
  8
0
 10
0.0000
 20
0.0000
 30
0.0000
 40
0.5000
  0
ENDBLK
  8
0
  0
BLOCK
  8
0
  2
ANNULUSP
 70
64
 10
0.0000
 20
0.0000
 30
0.0000
  3
ANNULUSP
  0
CIRCLE
  8
0
 10
0.0000
 20
0.0000
 30
0.0000
 40
0.5000
  0
ENDBLK
  8
0
  0
BLOCK
  8
0
  2
THERMALP
 70
64
 10
0.0000
 20
0.0000
 30
0.0000
  3
THERMALP
  0
LINE
  8
0
 10
-0.2379
 20
0.4500
 30
0.0000
 11
0.2379
 21
0.4500
 31
0.0000
  0
LINE
  8
0
 10
0.4500
 20
0.2379
 30
0.0000
 11
0.4500
 21
-0.2379
 31
0.0000
  0
LINE
  8
0
 10
0.2379
 20
-0.4500
 30
0.0000
 11
-0.2379
 21
-0.4500
 31
0.0000
  0
LINE
  8
0
 10
-0.4500
 20
-0.2379
 30
0.0000
 11
-0.4500
 21
0.2379
 31
0.0000
  0
ENDBLK
  8
0
  0
BLOCK
  8
0
  2
OCTAGONV
 70
64
 10
0.0000
 20
0.0000
 30
0.0000
  3
OCTAGONV
  0
POLYLINE
  8
0
 66
1
 10
0.0000
 20
0.0000
 30
0.0000
 40
0.0000
 41
0.0000
 70
1
  0
VERTEX
  8
0
 10
-0.5000
 20
-0.2071
 30
0.0000
  0
VERTEX
  8
0
 10
-0.5000
 20
0.2071
 30
0.0000
  0
VERTEX
  8
0
 10
-0.2071
 20
0.5000
 30
0.0000
  0
VERTEX
  8
0
 10
0.2071
 20
0.5000
 30
0.0000
  0
VERTEX
  8
0
 10
0.5000
 20
0.2071
 30
0.0000
  0
VERTEX
  8
0
 10
0.5000
 20
-0.2071
 30
0.0000
  0
VERTEX
  8
0
 10
0.2071
 20
-0.5000
 30
0.0000
  0
VERTEX
  8
0
 10
-0.2071
 20
-0.5000
 30
0.0000
  0
SEQEND
  8
0
  0
ENDBLK
  8
0
  0
BLOCK
  8
0
  2
SQUAREV
 70
64
 10
0.0000
 20
0.0000
 30
0.0000
  3
SQUAREV
  0
SOLID
  8
0
 10
-0.5000
 20
-0.5000
 30
0.0000
 11
0.5000
 21
-0.5000
 31
0.0000
 12
-0.5000
 22
0.5000
 32
0.0000
 13
0.5000
 23
0.5000
 33
0.0000
  0
ENDBLK
  8
0
  0
BLOCK
  8
0
  2
ROUNDV
 70
64
 10
0.0000
 20
0.0000
 30
0.0000
  3
ROUNDV
  0
CIRCLE
  8
0
 10
0.0000
 20
0.0000
 30
0.0000
 40
0.5000
  0
ENDBLK
  8
0
  0
BLOCK
  8
0
  2
ANNULUSV
 70
64
 10
0.0000
 20
0.0000
 30
0.0000
  3
ANNULUSV
  0
CIRCLE
  8
0
 10
0.0000
 20
0.0000
 30
0.0000
 40
0.5000
  0
ENDBLK
  8
0
  0
BLOCK
  8
0
  2
THERMALV
 70
64
 10
0.0000
 20
0.0000
 30
0.0000
  3
THERMALV
  0
LINE
  8
0
 10
-0.2379
 20
0.4500
 30
0.0000
 11
0.2379
 21
0.4500
 31
0.0000
  0
LINE
  8
0
 10
0.4500
 20
0.2379
 30
0.0000
 11
0.4500
 21
-0.2379
 31
0.0000
  0
LINE
  8
0
 10
0.2379
 20
-0.4500
 30
0.0000
 11
-0.2379
 21
-0.4500
 31
0.0000
  0
LINE
  8
0
 10
-0.4500
 20
-0.2379
 30
0.0000
 11
-0.4500
 21
0.2379
 31
0.0000
  0
ENDBLK
  8
0
  0
ENDSEC
  0
SECTION
  2
ENTITIES
  0
LINE
  8
20
 10
0.0000
 20
1.0000
 30
0.0000
 11
0.0000
 21
54.0000
 31
0.0000
  0
ARC
  8
20
 10
1.0000
 20
54.0000
 30
0.0000
 40
1.0000
 50
90.0000
 51
180.0000
  0
LINE
  8
20
 10
53.0000
 20
1.0000
 30
0.0000
 11
53.0000
 21
54.0000
 31
0.0000
  0
ARC
  8
20
 10
52.0000
 20
54.0000
 30
0.0000
 40
1.0000
 50
0.0000
 51
90.0000
  0
LINE
  8
20
 10
52.0000
 20
55.0000
 30
0.0000
 11
1.0000
 21
55.0000
 31
0.0000
  0
ARC
  8
20
 10
1.0000
 20
1.0000
 30
0.0000
 40
1.0000
 50
180.0000
 51
270.0000
  0
LINE
  8
20
 10
1.0000
 20
0.0000
 30
0.0000
 11
52.0000
 21
0.0000
 31
0.0000
  0
ARC
  8
20
 10
52.0000
 20
1.0000
 30
0.0000
 40
1.0000
 50
270.0000
 51
0.0000
  0
LINE
  8
21
 10
41.7512
 20
50.6412
 30
0.0000
 11
41.7512
 21
50.1650
 31
0.0000
  0
LINE
  8
21
 10
41.7512
 20
50.1650
 30
0.0000
 11
44.1325
 21
50.1650
 31
0.0000
  0
LINE
  8
21
 10
44.1325
 20
50.1650
 30
0.0000
 11
44.1325
 21
50.6412
 31
0.0000
  0
LINE
  8
21
 10
41.2750
 20
50.6412
 30
0.0000
 11
41.2750
 21
50.1650
 31
0.0000
  0
LINE
  8
21
 10
41.2750
 20
50.1650
 30
0.0000
 11
39.0525
 21
50.1650
 31
0.0000
  0
LINE
  8
21
 10
39.0525
 20
50.1650
 30
0.0000
 11
39.0525
 21
50.6412
 31
0.0000
  0
LINE
  8
21
 10
14.9733
 20
8.7820
 30
0.0000
 11
14.9733
 21
10.1029
 31
0.0000
  0
LINE
  8
21
 10
14.9733
 20
10.1029
 30
0.0000
 11
15.3402
 21
10.1029
 31
0.0000
  0
ARC
  8
21
 10
15.3402
 20
9.7360
 30
0.0000
 40
0.3669
 50
0.0000
 51
90.0000
  0
LINE
  8
21
 10
15.7071
 20
9.7360
 30
0.0000
 11
15.7071
 21
9.1489
 31
0.0000
  0
ARC
  8
21
 10
15.3402
 20
9.1489
 30
0.0000
 40
0.3669
 50
270.0000
 51
0.0000
  0
LINE
  8
21
 10
15.3402
 20
8.7820
 30
0.0000
 11
14.9733
 21
8.7820
 31
0.0000
  0
LINE
  8
21
 10
16.2790
 20
8.7820
 30
0.0000
 11
16.2790
 21
9.6626
 31
0.0000
  0
LINE
  8
21
 10
16.2423
 20
10.0295
 30
0.0000
 11
16.2423
 21
10.1029
 31
0.0000
  0
LINE
  8
21
 10
16.2423
 20
10.1029
 30
0.0000
 11
16.3157
 21
10.1029
 31
0.0000
  0
LINE
  8
21
 10
16.3157
 20
10.1029
 30
0.0000
 11
16.3157
 21
10.0295
 31
0.0000
  0
LINE
  8
21
 10
16.3157
 20
10.0295
 30
0.0000
 11
16.2423
 21
10.0295
 31
0.0000
  0
LINE
  8
21
 10
17.3770
 20
9.2957
 30
0.0000
 11
17.0468
 21
9.2957
 31
0.0000
  0
ARC
  8
21
 10
17.0468
 20
9.0389
 30
0.0000
 40
0.2568
 50
90.0000
 51
270.0000
  0
LINE
  8
21
 10
17.0468
 20
8.7820
 30
0.0000
 11
17.3770
 21
8.7820
 31
0.0000
  0
LINE
  8
21
 10
17.3770
 20
8.7820
 30
0.0000
 11
17.3770
 21
9.4425
 31
0.0000
  0
ARC
  8
21
 10
17.1569
 20
9.4425
 30
0.0000
 40
0.2201
 50
0.0000
 51
90.0000
  0
LINE
  8
21
 10
17.1569
 20
9.6626
 30
0.0000
 11
16.8634
 21
9.6626
 31
0.0000
  0
LINE
  8
21
 10
18.5291
 20
8.7820
 30
0.0000
 11
18.1623
 21
8.7820
 31
0.0000
  0
ARC
  8
21
 10
18.1623
 20
9.0022
 30
0.0000
 40
0.2201
 50
180.0000
 51
270.0000
  0
LINE
  8
21
 10
17.9421
 20
9.0022
 30
0.0000
 11
17.9421
 21
9.4425
 31
0.0000
  0
ARC
  8
21
 10
18.1623
 20
9.4425
 30
0.0000
 40
0.2201
 50
90.0000
 51
180.0000
  0
LINE
  8
21
 10
18.1623
 20
9.6626
 30
0.0000
 11
18.5291
 21
9.6626
 31
0.0000
  0
LINE
  8
21
 10
18.5291
 20
9.6626
 30
0.0000
 11
18.5291
 21
8.5619
 31
0.0000
  0
ARC
  8
21
 10
18.3090
 20
8.5619
 30
0.0000
 40
0.2201
 50
270.0008
 51
0.0000
  0
LINE
  8
21
 10
18.3090
 20
8.3418
 30
0.0000
 11
18.0155
 21
8.3418
 31
0.0000
  0
LINE
  8
21
 10
19.7952
 20
8.7820
 30
0.0000
 11
20.2355
 21
8.7820
 31
0.0000
  0
ARC
  8
21
 10
20.2355
 20
9.0756
 30
0.0000
 40
0.2935
 50
270.0000
 51
0.0006
  0
LINE
  8
21
 10
20.5290
 20
9.0756
 30
0.0000
 11
20.5290
 21
9.2223
 31
0.0000
  0
ARC
  8
21
 10
20.2355
 20
9.2223
 30
0.0000
 40
0.2935
 50
0.0000
 51
90.0000
  0
LINE
  8
21
 10
20.2355
 20
9.5158
 30
0.0000
 11
19.7952
 21
9.5158
 31
0.0000
  0
LINE
  8
21
 10
19.7952
 20
9.5158
 30
0.0000
 11
19.7952
 21
10.1029
 31
0.0000
  0
LINE
  8
21
 10
19.7952
 20
10.1029
 30
0.0000
 11
20.5290
 21
10.1029
 31
0.0000
  0
ARC
  8
21
 10
21.4423
 20
9.1489
 30
0.0000
 40
0.3669
 50
0.0000
 51
180.0000
  0
ARC
  8
21
 10
21.4423
 20
9.1489
 30
0.0000
 40
0.3669
 50
180.0000
 51
0.0000
  0
ARC
  8
21
 10
21.4423
 20
9.8093
 30
0.0000
 40
0.2935
 50
0.0000
 51
180.0000
  0
ARC
  8
21
 10
21.4423
 20
9.8093
 30
0.0000
 40
0.2935
 50
180.0000
 51
0.0000
  0
LINE
  8
21
 10
22.3555
 20
9.5158
 30
0.0000
 11
22.7958
 21
9.5158
 31
0.0000
  0
ARC
  8
21
 10
22.7958
 20
9.2223
 30
0.0000
 40
0.2935
 50
0.0000
 51
90.0000
  0
LINE
  8
21
 10
23.0893
 20
9.2223
 30
0.0000
 11
23.0893
 21
9.1489
 31
0.0000
  0
ARC
  8
21
 10
22.7224
 20
9.1489
 30
0.0000
 40
0.3669
 50
180.0000
 51
0.0000
  0
LINE
  8
21
 10
22.3555
 20
9.1489
 30
0.0000
 11
22.3555
 21
9.5158
 31
0.0000
  0
ARC
  8
21
 10
22.9426
 20
9.5158
 30
0.0000
 40
0.5870
 50
90.0003
 51
180.0000
  0
ARC
  8
21
 10
24.0393
 20
9.7727
 30
0.0000
 40
0.3302
 50
0.0000
 51
90.0000
  0
ARC
  8
21
 10
24.0393
 20
9.6786
 30
0.0000
 40
0.4242
 50
89.9999
 51
162.0555
  0
ARC
  8
21
 10
24.0148
 20
9.7727
 30
0.0000
 40
0.3547
 50
313.6037
 51
360.0000
  0
LINE
  8
21
 10
24.2594
 20
9.5158
 30
0.0000
 11
23.6357
 21
8.7820
 31
0.0000
  0
LINE
  8
21
 10
23.6357
 20
8.7820
 30
0.0000
 11
24.3695
 21
8.7820
 31
0.0000
  0
ARC
  8
21
 10
25.3194
 20
9.7727
 30
0.0000
 40
0.3302
 50
0.0000
 51
90.0000
  0
ARC
  8
21
 10
25.3194
 20
9.6786
 30
0.0000
 40
0.4242
 50
89.9999
 51
162.0555
  0
ARC
  8
21
 10
25.2950
 20
9.7727
 30
0.0000
 40
0.3547
 50
313.6037
 51
360.0000
  0
LINE
  8
21
 10
25.5396
 20
9.5158
 30
0.0000
 11
24.9159
 21
8.7820
 31
0.0000
  0
LINE
  8
21
 10
24.9159
 20
8.7820
 30
0.0000
 11
25.6496
 21
8.7820
 31
0.0000
  0
ARC
  8
21
 10
27.2844
 20
9.4425
 30
0.0000
 40
1.0884
 50
154.0108
 51
180.0001
  0
ARC
  8
21
 10
26.5629
 20
9.8314
 30
0.0000
 40
0.2715
 50
90.0001
 51
161.0754
  0
ARC
  8
21
 10
26.5629
 20
9.8314
 30
0.0000
 40
0.2715
 50
18.9239
 51
89.9999
  0
ARC
  8
21
 10
25.8414
 20
9.4425
 30
0.0000
 40
1.0884
 50
359.9999
 51
25.9892
  0
ARC
  8
21
 10
27.2845
 20
9.4425
 30
0.0000
 40
1.0884
 50
180.0000
 51
205.9890
  0
ARC
  8
21
 10
26.5629
 20
9.0536
 30
0.0000
 40
0.2715
 50
198.9250
 51
269.9998
  0
ARC
  8
21
 10
25.8413
 20
9.4425
 30
0.0000
 40
1.0885
 50
334.0110
 51
360.0000
  0
ARC
  8
21
 10
26.5629
 20
9.0535
 30
0.0000
 40
0.2715
 50
269.9999
 51
341.0753
  0
LINE
  8
21
 10
26.2694
 20
9.0756
 30
0.0000
 11
26.8564
 21
9.8093
 31
0.0000
  0
LINE
  8
21
 10
28.2016
 20
10.1029
 30
0.0000
 11
28.2016
 21
9.1489
 31
0.0000
  0
ARC
  8
21
 10
28.5685
 20
9.1489
 30
0.0000
 40
0.3669
 50
180.0000
 51
0.0000
  0
LINE
  8
21
 10
28.9354
 20
9.1489
 30
0.0000
 11
28.9354
 21
10.1029
 31
0.0000
  0
LINE
  8
21
 10
29.9894
 20
9.1489
 30
0.0000
 11
29.6225
 21
9.2957
 31
0.0000
  0
ARC
  8
21
 10
29.6932
 20
9.4723
 30
0.0000
 40
0.1903
 50
89.1812
 51
248.1987
  0
ARC
  8
21
 10
29.6840
 20
8.8294
 30
0.0000
 40
0.8333
 50
65.7611
 51
89.1812
  0
ARC
  8
21
 10
29.9188
 20
8.9723
 30
0.0000
 40
0.1903
 50
269.1812
 51
68.1987
  0
ARC
  8
21
 10
29.9338
 20
10.0264
 30
0.0000
 40
1.2445
 50
250.2099
 51
269.1812
  0
LINE
  8
21
 10
31.2089
 20
8.7820
 30
0.0000
 11
30.8421
 21
8.7820
 31
0.0000
  0
ARC
  8
21
 10
30.8421
 20
9.0022
 30
0.0000
 40
0.2201
 50
180.0000
 51
270.0000
  0
LINE
  8
21
 10
30.6219
 20
9.0022
 30
0.0000
 11
30.6219
 21
9.3691
 31
0.0000
  0
ARC
  8
21
 10
30.9154
 20
9.3691
 30
0.0000
 40
0.2935
 50
0.0000
 51
180.0000
  0
LINE
  8
21
 10
31.2089
 20
9.3691
 30
0.0000
 11
31.2089
 21
9.2223
 31
0.0000
  0
LINE
  8
21
 10
31.2089
 20
9.2223
 30
0.0000
 11
30.6219
 21
9.2223
 31
0.0000
  0
LINE
  8
21
 10
31.7811
 20
8.7820
 30
0.0000
 11
31.7811
 21
9.6626
 31
0.0000
  0
LINE
  8
21
 10
31.7811
 20
9.6626
 30
0.0000
 11
32.2214
 21
9.6626
 31
0.0000
  0
LINE
  8
21
 10
32.2214
 20
9.6626
 30
0.0000
 11
32.2214
 21
9.5158
 31
0.0000
  0
LINE
  8
21
 10
32.6514
 20
9.2957
 30
0.0000
 11
33.5320
 21
9.2957
 31
0.0000
  0
LINE
  8
21
 10
34.1509
 20
8.7820
 30
0.0000
 11
34.1509
 21
10.1029
 31
0.0000
  0
LINE
  8
21
 10
34.1509
 20
10.1029
 30
0.0000
 11
34.5178
 21
10.1029
 31
0.0000
  0
ARC
  8
21
 10
34.5178
 20
9.7360
 30
0.0000
 40
0.3669
 50
270.0000
 51
90.0000
  0
LINE
  8
21
 10
34.5178
 20
9.3691
 30
0.0000
 11
34.1509
 21
9.3691
 31
0.0000
  0
LINE
  8
21
 10
35.3585
 20
9.0756
 30
0.0000
 11
35.3585
 21
9.3691
 31
0.0000
  0
ARC
  8
21
 10
35.6520
 20
9.3691
 30
0.0000
 40
0.2935
 50
0.0000
 51
180.0000
  0
LINE
  8
21
 10
35.9455
 20
9.3691
 30
0.0000
 11
35.9455
 21
9.0756
 31
0.0000
  0
ARC
  8
21
 10
35.6520
 20
9.0756
 30
0.0000
 40
0.2935
 50
180.0000
 51
0.0000
  0
LINE
  8
21
 10
36.5177
 20
8.7820
 30
0.0000
 11
36.5177
 21
9.6626
 31
0.0000
  0
LINE
  8
21
 10
36.5177
 20
9.6626
 30
0.0000
 11
36.9580
 21
9.6626
 31
0.0000
  0
LINE
  8
21
 10
36.9580
 20
9.6626
 30
0.0000
 11
36.9580
 21
9.5158
 31
0.0000
  0
LINE
  8
21
 10
37.2570
 20
9.6626
 30
0.0000
 11
37.6973
 21
9.6626
 31
0.0000
  0
LINE
  8
21
 10
37.4037
 20
10.1029
 30
0.0000
 11
37.4037
 21
9.0022
 31
0.0000
  0
ARC
  8
21
 10
37.6239
 20
9.0022
 30
0.0000
 40
0.2201
 50
180.0000
 51
270.0008
  0
LINE
  8
21
 10
37.6239
 20
8.7820
 30
0.0000
 11
37.6973
 21
8.7820
 31
0.0000
  0
LINE
  8
21
 10
15.1321
 20
6.8771
 30
0.0000
 11
15.1321
 21
8.1979
 31
0.0000
  0
LINE
  8
21
 10
15.1321
 20
8.1979
 30
0.0000
 11
15.4989
 21
8.1979
 31
0.0000
  0
ARC
  8
21
 10
15.4989
 20
7.8310
 30
0.0000
 40
0.3669
 50
270.0000
 51
90.0000
  0
LINE
  8
21
 10
15.4989
 20
7.4641
 30
0.0000
 11
15.1321
 21
7.4641
 31
0.0000
  0
LINE
  8
21
 10
15.8658
 20
6.8771
 30
0.0000
 11
15.5723
 21
7.4641
 31
0.0000
  0
LINE
  8
21
 10
16.9795
 20
6.8771
 30
0.0000
 11
16.6126
 21
6.8771
 31
0.0000
  0
ARC
  8
21
 10
16.6126
 20
7.0972
 30
0.0000
 40
0.2201
 50
180.0000
 51
270.0000
  0
LINE
  8
21
 10
16.3924
 20
7.0972
 30
0.0000
 11
16.3924
 21
7.4641
 31
0.0000
  0
ARC
  8
21
 10
16.6859
 20
7.4641
 30
0.0000
 40
0.2935
 50
0.0000
 51
180.0000
  0
LINE
  8
21
 10
16.9795
 20
7.4641
 30
0.0000
 11
16.9795
 21
7.3173
 31
0.0000
  0
LINE
  8
21
 10
16.9795
 20
7.3173
 30
0.0000
 11
16.3924
 21
7.3173
 31
0.0000
  0
LINE
  8
21
 10
17.4592
 20
7.7576
 30
0.0000
 11
17.7527
 21
6.8771
 31
0.0000
  0
LINE
  8
21
 10
17.7527
 20
6.8771
 30
0.0000
 11
18.0463
 21
7.7576
 31
0.0000
  0
LINE
  8
21
 10
18.4842
 20
6.8771
 30
0.0000
 11
18.4842
 21
6.9504
 31
0.0000
  0
LINE
  8
21
 10
18.4842
 20
6.9504
 30
0.0000
 11
18.5575
 21
6.9504
 31
0.0000
  0
LINE
  8
21
 10
18.5575
 20
6.9504
 30
0.0000
 11
18.5575
 21
6.8771
 31
0.0000
  0
LINE
  8
21
 10
18.5575
 20
6.8771
 30
0.0000
 11
18.4842
 21
6.8771
 31
0.0000
  0
ARC
  8
21
 10
20.1364
 20
7.8677
 30
0.0000
 40
0.3302
 50
0.0000
 51
90.0000
  0
ARC
  8
21
 10
20.1364
 20
7.7736
 30
0.0000
 40
0.4242
 50
89.9999
 51
162.0555
  0
ARC
  8
21
 10
20.1119
 20
7.8677
 30
0.0000
 40
0.3547
 50
313.6037
 51
360.0000
  0
LINE
  8
21
 10
20.3565
 20
7.6108
 30
0.0000
 11
19.7328
 21
6.8771
 31
0.0000
  0
LINE
  8
21
 10
19.7328
 20
6.8771
 30
0.0000
 11
20.4666
 21
6.8771
 31
0.0000
  0
LINE
  8
21
 10
42.5499
 20
6.2675
 30
0.0000
 11
42.1887
 21
6.2675
 31
0.0000
  0
ARC
  8
21
 10
42.1887
 20
6.6287
 30
0.0000
 40
0.3612
 50
180.0000
 51
270.0000
  0
LINE
  8
21
 10
41.8274
 20
6.6287
 30
0.0000
 11
41.8274
 21
7.5318
 31
0.0000
  0
ARC
  8
21
 10
42.1887
 20
7.5318
 30
0.0000
 40
0.3612
 50
90.0005
 51
180.0000
  0
LINE
  8
21
 10
42.1887
 20
7.8931
 30
0.0000
 11
42.5499
 21
7.8931
 31
0.0000
  0
LINE
  8
21
 10
43.0437
 20
6.2675
 30
0.0000
 11
43.5856
 21
7.8931
 31
0.0000
  0
LINE
  8
21
 10
43.5856
 20
7.8931
 30
0.0000
 11
44.1274
 21
6.2675
 31
0.0000
  0
LINE
  8
21
 10
43.9920
 20
6.6739
 30
0.0000
 11
43.1792
 21
6.6739
 31
0.0000
  0
ARC
  8
21
 10
45.1869
 20
6.6287
 30
0.0000
 40
0.3612
 50
270.0000
 51
0.0000
  0
ARC
  8
21
 10
45.1869
 20
7.0306
 30
0.0000
 40
0.7631
 50
224.7608
 51
269.9999
  0
ARC
  8
21
 10
45.0514
 20
7.5318
 30
0.0000
 40
0.3612
 50
89.9995
 51
180.0000
  0
ARC
  8
21
 10
45.0514
 20
7.2157
 30
0.0000
 40
0.6773
 50
53.1301
 51
89.9995
  0
ARC
  8
21
 10
45.0571
 20
7.5318
 30
0.0000
 40
0.3669
 50
179.9998
 51
239.4900
  0
ARC
  8
21
 10
45.1812
 20
6.6287
 30
0.0000
 40
0.3669
 50
0.0000
 51
59.4898
  0
LINE
  8
21
 10
45.3675
 20
6.9448
 30
0.0000
 11
44.8708
 21
7.2157
 31
0.0000
  0
ARC
  8
21
 10
46.6458
 20
6.6287
 30
0.0000
 40
0.3612
 50
270.0000
 51
0.0000
  0
ARC
  8
21
 10
46.6458
 20
7.0306
 30
0.0000
 40
0.7631
 50
224.7608
 51
269.9999
  0
ARC
  8
21
 10
46.5103
 20
7.5318
 30
0.0000
 40
0.3612
 50
89.9995
 51
180.0000
  0
ARC
  8
21
 10
46.5103
 20
7.2157
 30
0.0000
 40
0.6773
 50
53.1301
 51
89.9995
  0
ARC
  8
21
 10
46.5160
 20
7.5318
 30
0.0000
 40
0.3669
 50
179.9998
 51
239.4900
  0
ARC
  8
21
 10
46.6402
 20
6.6287
 30
0.0000
 40
0.3669
 50
0.0000
 51
59.4898
  0
LINE
  8
21
 10
46.8264
 20
6.9448
 30
0.0000
 11
46.3297
 21
7.2157
 31
0.0000
  0
LINE
  8
21
 10
48.3925
 20
6.2675
 30
0.0000
 11
47.6700
 21
6.2675
 31
0.0000
  0
LINE
  8
21
 10
47.6700
 20
6.2675
 30
0.0000
 11
47.6700
 21
7.8931
 31
0.0000
  0
LINE
  8
21
 10
47.6700
 20
7.8931
 30
0.0000
 11
48.3925
 21
7.8931
 31
0.0000
  0
LINE
  8
21
 10
47.6700
 20
7.1706
 30
0.0000
 11
48.2119
 21
7.1706
 31
0.0000
  0
LINE
  8
21
 10
49.3170
 20
6.2675
 30
0.0000
 11
49.3170
 21
7.8931
 31
0.0000
  0
LINE
  8
21
 10
48.8655
 20
7.8931
 30
0.0000
 11
49.7686
 21
7.8931
 31
0.0000
  0
LINE
  8
21
 10
50.6717
 20
6.2675
 30
0.0000
 11
50.6717
 21
7.8931
 31
0.0000
  0
LINE
  8
21
 10
50.2202
 20
7.8931
 30
0.0000
 11
51.1233
 21
7.8931
 31
0.0000
  0
LINE
  8
21
 10
52.4567
 20
6.2675
 30
0.0000
 11
51.7342
 21
6.2675
 31
0.0000
  0
LINE
  8
21
 10
51.7342
 20
6.2675
 30
0.0000
 11
51.7342
 21
7.8931
 31
0.0000
  0
LINE
  8
21
 10
51.7342
 20
7.8931
 30
0.0000
 11
52.4567
 21
7.8931
 31
0.0000
  0
LINE
  8
21
 10
51.7342
 20
7.1706
 30
0.0000
 11
52.2760
 21
7.1706
 31
0.0000
  0
LINE
  8
21
 10
44.9312
 20
45.6375
 30
0.0000
 11
44.5699
 21
45.6375
 31
0.0000
  0
ARC
  8
21
 10
44.5699
 20
45.9987
 30
0.0000
 40
0.3612
 50
180.0000
 51
270.0000
  0
LINE
  8
21
 10
44.2087
 20
45.9987
 30
0.0000
 11
44.2087
 21
46.9018
 31
0.0000
  0
ARC
  8
21
 10
44.5699
 20
46.9018
 30
0.0000
 40
0.3612
 50
90.0005
 51
180.0000
  0
LINE
  8
21
 10
44.5699
 20
47.2630
 30
0.0000
 11
44.9312
 21
47.2630
 31
0.0000
  0
LINE
  8
21
 10
45.8626
 20
45.6375
 30
0.0000
 11
45.8626
 21
47.2630
 31
0.0000
  0
LINE
  8
21
 10
45.4110
 20
47.2630
 30
0.0000
 11
46.3142
 21
47.2630
 31
0.0000
  0
LINE
  8
21
 10
46.9312
 20
45.6375
 30
0.0000
 11
46.9312
 21
47.2630
 31
0.0000
  0
LINE
  8
21
 10
46.9312
 20
47.2630
 30
0.0000
 11
47.3828
 21
47.2630
 31
0.0000
  0
ARC
  8
21
 10
47.3828
 20
46.8115
 30
0.0000
 40
0.4516
 50
270.0000
 51
90.0000
  0
LINE
  8
21
 10
47.3828
 20
46.3599
 30
0.0000
 11
46.9312
 21
46.3599
 31
0.0000
  0
LINE
  8
21
 10
47.8343
 20
45.6375
 30
0.0000
 11
47.4731
 21
46.3599
 31
0.0000
  0
LINE
  8
21
 10
48.5403
 20
47.2630
 30
0.0000
 11
48.5403
 21
45.6375
 31
0.0000
  0
LINE
  8
21
 10
48.5403
 20
45.6375
 30
0.0000
 11
49.2628
 21
45.6375
 31
0.0000
  0
LINE
  8
21
 10
49.8017
 20
46.1793
 30
0.0000
 11
50.8854
 21
46.1793
 31
0.0000
  0
LINE
  8
21
 10
49.8017
 20
46.7212
 30
0.0000
 11
50.8854
 21
46.7212
 31
0.0000
  0
LINE
  8
21
 10
50.0726
 20
45.6375
 30
0.0000
 11
50.0726
 21
47.2630
 31
0.0000
  0
LINE
  8
21
 10
50.6145
 20
45.6375
 30
0.0000
 11
50.6145
 21
47.2630
 31
0.0000
  0
LINE
  8
21
 10
51.5072
 20
46.9018
 30
0.0000
 11
51.9588
 21
47.2630
 31
0.0000
  0
LINE
  8
21
 10
51.9588
 20
47.2630
 30
0.0000
 11
51.9588
 21
45.6375
 31
0.0000
  0
LINE
  8
21
 10
51.5072
 20
45.6375
 30
0.0000
 11
52.4103
 21
45.6375
 31
0.0000
  0
LINE
  8
21
 10
24.4524
 20
42.9387
 30
0.0000
 11
24.0912
 21
42.9387
 31
0.0000
  0
ARC
  8
21
 10
24.0912
 20
43.2999
 30
0.0000
 40
0.3612
 50
180.0000
 51
270.0000
  0
LINE
  8
21
 10
23.7300
 20
43.2999
 30
0.0000
 11
23.7300
 21
44.2031
 31
0.0000
  0
ARC
  8
21
 10
24.0912
 20
44.2031
 30
0.0000
 40
0.3612
 50
90.0005
 51
180.0000
  0
LINE
  8
21
 10
24.0912
 20
44.5643
 30
0.0000
 11
24.4524
 21
44.5643
 31
0.0000
  0
LINE
  8
21
 10
25.3838
 20
42.9387
 30
0.0000
 11
25.3838
 21
44.5643
 31
0.0000
  0
LINE
  8
21
 10
24.9323
 20
44.5643
 30
0.0000
 11
25.8354
 21
44.5643
 31
0.0000
  0
LINE
  8
21
 10
26.4525
 20
42.9387
 30
0.0000
 11
26.4525
 21
44.5643
 31
0.0000
  0
LINE
  8
21
 10
26.4525
 20
44.5643
 30
0.0000
 11
26.9040
 21
44.5643
 31
0.0000
  0
ARC
  8
21
 10
26.9040
 20
44.1127
 30
0.0000
 40
0.4516
 50
270.0000
 51
90.0000
  0
LINE
  8
21
 10
26.9040
 20
43.6612
 30
0.0000
 11
26.4525
 21
43.6612
 31
0.0000
  0
LINE
  8
21
 10
27.3556
 20
42.9387
 30
0.0000
 11
26.9943
 21
43.6612
 31
0.0000
  0
LINE
  8
21
 10
28.0615
 20
44.5643
 30
0.0000
 11
28.0615
 21
42.9387
 31
0.0000
  0
LINE
  8
21
 10
28.0615
 20
42.9387
 30
0.0000
 11
28.7840
 21
42.9387
 31
0.0000
  0
LINE
  8
21
 10
29.3229
 20
43.4806
 30
0.0000
 11
30.4067
 21
43.4806
 31
0.0000
  0
LINE
  8
21
 10
29.3229
 20
44.0224
 30
0.0000
 11
30.4067
 21
44.0224
 31
0.0000
  0
LINE
  8
21
 10
29.5939
 20
42.9387
 30
0.0000
 11
29.5939
 21
44.5643
 31
0.0000
  0
LINE
  8
21
 10
30.1357
 20
42.9387
 30
0.0000
 11
30.1357
 21
44.5643
 31
0.0000
  0
ARC
  8
21
 10
31.5252
 20
44.1579
 30
0.0000
 40
0.4064
 50
0.0000
 51
90.0000
  0
ARC
  8
21
 10
31.5252
 20
44.0422
 30
0.0000
 40
0.5221
 50
90.0001
 51
162.0549
  0
ARC
  8
21
 10
31.4951
 20
44.1579
 30
0.0000
 40
0.4365
 50
313.6036
 51
359.9997
  0
LINE
  8
21
 10
31.7961
 20
43.8418
 30
0.0000
 11
31.0285
 21
42.9387
 31
0.0000
  0
LINE
  8
21
 10
31.0285
 20
42.9387
 30
0.0000
 11
31.9316
 21
42.9387
 31
0.0000
  0
LINE
  8
21
 10
50.6594
 20
3.0287
 30
0.0000
 11
50.2982
 21
3.4803
 31
0.0000
  0
LINE
  8
21
 10
50.2982
 20
3.4803
 30
0.0000
 11
51.9238
 21
3.4803
 31
0.0000
  0
LINE
  8
21
 10
51.9238
 20
3.0287
 30
0.0000
 11
51.9238
 21
3.9318
 31
0.0000
  0
LINE
  8
21
 10
1.6594
 20
1.5762
 30
0.0000
 11
1.2982
 21
2.0278
 31
0.0000
  0
LINE
  8
21
 10
1.2982
 20
2.0278
 30
0.0000
 11
2.9238
 21
2.0278
 31
0.0000
  0
LINE
  8
21
 10
2.9238
 20
1.5762
 30
0.0000
 11
2.9238
 21
2.4793
 31
0.0000
  0
ARC
  8
21
 10
1.7046
 20
3.6360
 30
0.0000
 40
0.4064
 50
90.0000
 51
180.0000
  0
ARC
  8
21
 10
1.8203
 20
3.6360
 30
0.0000
 40
0.5221
 50
180.0001
 51
252.0552
  0
ARC
  8
21
 10
1.7046
 20
3.6059
 30
0.0000
 40
0.4365
 50
43.6033
 51
90.0000
  0
LINE
  8
21
 10
2.0207
 20
3.9070
 30
0.0000
 11
2.9238
 21
3.1393
 31
0.0000
  0
LINE
  8
21
 10
2.9238
 20
3.1393
 30
0.0000
 11
2.9238
 21
4.0424
 31
0.0000
  0
LINE
  8
21
 10
1.3462
 20
6.2675
 30
0.0000
 11
1.3462
 21
7.8931
 31
0.0000
  0
LINE
  8
21
 10
2.2493
 20
7.8931
 30
0.0000
 11
1.3462
 21
6.8996
 31
0.0000
  0
LINE
  8
21
 10
2.2493
 20
6.2675
 30
0.0000
 11
1.7074
 21
7.2609
 31
0.0000
  0
LINE
  8
21
 10
3.6137
 20
6.2675
 30
0.0000
 11
2.8912
 21
6.2675
 31
0.0000
  0
LINE
  8
21
 10
2.8912
 20
6.2675
 30
0.0000
 11
2.8912
 21
7.8931
 31
0.0000
  0
LINE
  8
21
 10
2.8912
 20
7.8931
 30
0.0000
 11
3.6137
 21
7.8931
 31
0.0000
  0
LINE
  8
21
 10
2.8912
 20
7.1706
 30
0.0000
 11
3.4331
 21
7.1706
 31
0.0000
  0
LINE
  8
21
 10
4.1005
 20
7.8931
 30
0.0000
 11
4.6424
 21
7.1254
 31
0.0000
  0
LINE
  8
21
 10
4.6424
 20
7.1254
 30
0.0000
 11
5.1843
 21
7.8931
 31
0.0000
  0
LINE
  8
21
 10
4.6424
 20
6.2675
 30
0.0000
 11
4.6424
 21
7.1254
 31
0.0000
  0
LINE
  8
21
 10
5.8272
 20
7.1706
 30
0.0000
 11
6.2787
 21
7.1706
 31
0.0000
  0
ARC
  8
21
 10
6.2787
 20
6.7190
 30
0.0000
 40
0.4516
 50
270.0000
 51
90.0000
  0
LINE
  8
21
 10
6.2787
 20
6.2675
 30
0.0000
 11
5.8272
 21
6.2675
 31
0.0000
  0
LINE
  8
21
 10
5.8272
 20
6.2675
 30
0.0000
 11
5.8272
 21
7.8931
 31
0.0000
  0
LINE
  8
21
 10
5.8272
 20
7.8931
 30
0.0000
 11
6.2787
 21
7.8931
 31
0.0000
  0
ARC
  8
21
 10
6.2787
 20
7.5318
 30
0.0000
 40
0.3612
 50
270.0000
 51
90.0000
  0
LINE
  8
21
 10
7.3171
 20
6.7190
 30
0.0000
 11
7.3171
 21
7.4415
 31
0.0000
  0
ARC
  8
21
 10
7.7686
 20
7.4415
 30
0.0000
 40
0.4516
 50
0.0000
 51
180.0000
  0
LINE
  8
21
 10
8.2202
 20
7.4415
 30
0.0000
 11
8.2202
 21
6.7190
 31
0.0000
  0
ARC
  8
21
 10
7.7686
 20
6.7190
 30
0.0000
 40
0.4516
 50
180.0000
 51
0.0000
  0
LINE
  8
21
 10
8.7899
 20
6.2675
 30
0.0000
 11
9.3318
 21
7.8931
 31
0.0000
  0
LINE
  8
21
 10
9.3318
 20
7.8931
 30
0.0000
 11
9.8736
 21
6.2675
 31
0.0000
  0
LINE
  8
21
 10
9.7382
 20
6.6739
 30
0.0000
 11
8.9254
 21
6.6739
 31
0.0000
  0
LINE
  8
21
 10
10.5046
 20
6.2675
 30
0.0000
 11
10.5046
 21
7.8931
 31
0.0000
  0
LINE
  8
21
 10
10.5046
 20
7.8931
 30
0.0000
 11
10.9561
 21
7.8931
 31
0.0000
  0
ARC
  8
21
 10
10.9561
 20
7.4415
 30
0.0000
 40
0.4516
 50
270.0000
 51
90.0000
  0
LINE
  8
21
 10
10.9561
 20
6.9899
 30
0.0000
 11
10.5046
 21
6.9899
 31
0.0000
  0
LINE
  8
21
 10
11.4077
 20
6.2675
 30
0.0000
 11
11.0465
 21
6.9899
 31
0.0000
  0
LINE
  8
21
 10
12.1107
 20
6.2675
 30
0.0000
 11
12.1107
 21
7.8931
 31
0.0000
  0
LINE
  8
21
 10
12.1107
 20
7.8931
 30
0.0000
 11
12.5622
 21
7.8931
 31
0.0000
  0
ARC
  8
21
 10
12.5622
 20
7.4415
 30
0.0000
 40
0.4516
 50
0.0000
 51
90.0000
  0
LINE
  8
21
 10
13.0138
 20
7.4415
 30
0.0000
 11
13.0138
 21
6.7190
 31
0.0000
  0
ARC
  8
21
 10
12.5622
 20
6.7190
 30
0.0000
 40
0.4516
 50
269.9996
 51
0.0000
  0
LINE
  8
21
 10
12.5622
 20
6.2675
 30
0.0000
 11
12.1107
 21
6.2675
 31
0.0000
  0
LINE
  8
21
 10
42.3700
 20
48.9712
 30
0.0000
 11
42.1781
 21
48.9712
 31
0.0000
  0
ARC
  8
21
 10
42.1781
 20
49.1631
 30
0.0000
 40
0.1919
 50
180.0000
 51
270.0000
  0
LINE
  8
21
 10
41.9862
 20
49.1631
 30
0.0000
 11
41.9862
 21
49.6429
 31
0.0000
  0
ARC
  8
21
 10
42.1781
 20
49.6429
 30
0.0000
 40
0.1919
 50
90.0009
 51
180.0000
  0
LINE
  8
21
 10
42.1781
 20
49.8348
 30
0.0000
 11
42.3700
 21
49.8348
 31
0.0000
  0
LINE
  8
21
 10
42.7520
 20
49.4510
 30
0.0000
 11
43.0399
 21
49.4510
 31
0.0000
  0
ARC
  8
21
 10
43.0399
 20
49.2591
 30
0.0000
 40
0.1919
 50
0.0000
 51
90.0000
  0
LINE
  8
21
 10
43.2318
 20
49.2591
 30
0.0000
 11
43.2318
 21
49.2111
 31
0.0000
  0
ARC
  8
21
 10
42.9919
 20
49.2111
 30
0.0000
 40
0.2399
 50
180.0000
 51
0.0000
  0
LINE
  8
21
 10
42.7520
 20
49.2111
 30
0.0000
 11
42.7520
 21
49.4510
 31
0.0000
  0
ARC
  8
21
 10
43.1358
 20
49.4510
 30
0.0000
 40
0.3838
 50
90.0005
 51
180.0000
  0
LINE
  8
21
 10
43.8583
 20
49.8348
 30
0.0000
 11
43.6664
 21
49.1631
 31
0.0000
  0
LINE
  8
21
 10
43.6664
 20
49.1631
 30
0.0000
 11
44.1462
 21
49.1631
 31
0.0000
  0
LINE
  8
21
 10
44.0023
 20
49.3550
 30
0.0000
 11
44.0023
 21
48.9712
 31
0.0000
  0
ARC
  8
21
 10
38.4641
 20
49.1631
 30
0.0000
 40
0.1919
 50
270.0009
 51
360.0000
  0
ARC
  8
21
 10
38.4641
 20
49.3766
 30
0.0000
 40
0.4054
 50
224.7597
 51
270.0007
  0
ARC
  8
21
 10
38.3921
 20
49.6429
 30
0.0000
 40
0.1919
 50
90.0000
 51
180.0000
  0
ARC
  8
21
 10
38.3921
 20
49.4750
 30
0.0000
 40
0.3598
 50
53.1291
 51
90.0000
  0
ARC
  8
21
 10
38.3951
 20
49.6429
 30
0.0000
 40
0.1949
 50
180.0001
 51
239.4892
  0
ARC
  8
21
 10
38.4611
 20
49.1631
 30
0.0000
 40
0.1949
 50
359.9997
 51
59.4889
  0
LINE
  8
21
 10
38.5600
 20
49.3310
 30
0.0000
 11
38.2961
 21
49.4750
 31
0.0000
  0
LINE
  8
21
 10
39.0121
 20
48.9712
 30
0.0000
 11
39.5879
 21
49.8348
 31
0.0000
  0
LINE
  8
21
 10
39.0121
 20
49.8348
 30
0.0000
 11
39.5879
 21
48.9712
 31
0.0000
  0
LINE
  8
21
 10
39.9745
 20
49.4510
 30
0.0000
 11
40.2624
 21
49.4510
 31
0.0000
  0
ARC
  8
21
 10
40.2624
 20
49.2591
 30
0.0000
 40
0.1919
 50
0.0000
 51
90.0000
  0
LINE
  8
21
 10
40.4543
 20
49.2591
 30
0.0000
 11
40.4543
 21
49.2111
 31
0.0000
  0
ARC
  8
21
 10
40.2144
 20
49.2111
 30
0.0000
 40
0.2399
 50
180.0000
 51
0.0000
  0
LINE
  8
21
 10
39.9745
 20
49.2111
 30
0.0000
 11
39.9745
 21
49.4510
 31
0.0000
  0
ARC
  8
21
 10
40.3583
 20
49.4510
 30
0.0000
 40
0.3838
 50
90.0005
 51
180.0000
  0
LINE
  8
21
 10
41.0808
 20
49.8348
 30
0.0000
 11
40.8889
 21
49.1631
 31
0.0000
  0
LINE
  8
21
 10
40.8889
 20
49.1631
 30
0.0000
 11
41.3687
 21
49.1631
 31
0.0000
  0
LINE
  8
21
 10
41.2248
 20
49.3550
 30
0.0000
 11
41.2248
 21
48.9712
 31
0.0000
  0
LINE
  8
21
 10
5.9387
 20
31.6371
 30
0.0000
 11
5.9387
 21
31.2476
 31
0.0000
  0
ARC
  8
21
 10
5.6790
 20
31.2476
 30
0.0000
 40
0.2596
 50
270.0000
 51
0.0000
  0
LINE
  8
21
 10
5.6790
 20
30.9880
 30
0.0000
 11
5.6141
 21
30.9880
 31
0.0000
  0
ARC
  8
21
 10
5.6141
 20
31.3126
 30
0.0000
 40
0.3246
 50
90.0000
 51
270.0000
  0
LINE
  8
21
 10
5.6141
 20
31.6371
 30
0.0000
 11
5.9387
 21
31.6371
 31
0.0000
  0
ARC
  8
21
 10
5.9387
 20
31.1178
 30
0.0000
 40
0.5193
 50
0.0000
 51
90.0000
  0
LINE
  8
21
 10
5.2896
 20
32.0661
 30
0.0000
 11
6.4580
 21
32.4556
 31
0.0000
  0
LINE
  8
21
 10
6.4580
 20
32.4556
 30
0.0000
 11
5.2896
 21
32.8450
 31
0.0000
  0
ARC
  8
21
 10
6.0685
 20
33.3925
 30
0.0000
 40
0.1298
 50
180.0000
 51
270.0000
  0
ARC
  8
21
 10
6.1009
 20
33.3925
 30
0.0000
 40
0.1623
 50
126.8684
 51
180.0004
  0
ARC
  8
21
 10
5.9062
 20
33.6522
 30
0.0000
 40
0.1623
 50
306.8684
 51
0.0049
  0
ARC
  8
21
 10
5.9387
 20
33.6522
 30
0.0000
 40
0.1298
 50
0.0041
 51
89.9959
  0
LINE
  8
21
 10
7.1896
 20
42.3213
 30
0.0000
 11
6.8001
 21
42.3213
 31
0.0000
  0
ARC
  8
21
 10
6.8001
 20
42.5810
 30
0.0000
 40
0.2596
 50
180.0000
 51
270.0000
  0
LINE
  8
21
 10
6.5405
 20
42.5810
 30
0.0000
 11
6.5405
 21
42.6459
 31
0.0000
  0
ARC
  8
21
 10
6.8651
 20
42.6459
 30
0.0000
 40
0.3246
 50
0.0000
 51
180.0000
  0
LINE
  8
21
 10
7.1896
 20
42.6459
 30
0.0000
 11
7.1896
 21
42.3213
 31
0.0000
  0
ARC
  8
21
 10
6.6703
 20
42.3213
 30
0.0000
 40
0.5193
 50
270.0000
 51
0.0000
  0
LINE
  8
21
 10
7.6186
 20
42.9704
 30
0.0000
 11
8.0081
 21
41.8021
 31
0.0000
  0
LINE
  8
21
 10
8.0081
 20
41.8021
 30
0.0000
 11
8.3975
 21
42.9704
 31
0.0000
  0
ARC
  8
21
 10
8.9450
 20
42.1915
 30
0.0000
 40
0.1298
 50
89.9986
 51
180.0000
  0
ARC
  8
21
 10
8.9450
 20
42.1591
 30
0.0000
 40
0.1623
 50
36.8699
 51
89.9989
  0
ARC
  8
21
 10
9.2047
 20
42.3538
 30
0.0000
 40
0.1623
 50
216.8697
 51
270.0013
  0
ARC
  8
21
 10
9.2047
 20
42.3213
 30
0.0000
 40
0.1298
 50
270.0014
 51
0.0000
  0
LINE
  8
21
 10
9.6548
 20
47.4493
 30
0.0000
 11
9.6548
 21
48.2283
 31
0.0000
  0
LINE
  8
21
 10
10.0443
 20
47.8388
 30
0.0000
 11
9.2654
 21
47.8388
 31
0.0000
  0
LINE
  8
21
 10
10.1092
 20
48.7334
 30
0.0000
 11
10.1092
 21
49.1229
 31
0.0000
  0
ARC
  8
21
 10
9.8496
 20
49.1229
 30
0.0000
 40
0.2596
 50
0.0000
 51
90.0000
  0
LINE
  8
21
 10
9.8496
 20
49.3825
 30
0.0000
 11
9.7197
 21
49.3825
 31
0.0000
  0
ARC
  8
21
 10
9.7197
 20
49.1229
 30
0.0000
 40
0.2596
 50
90.0000
 51
180.0000
  0
LINE
  8
21
 10
9.4601
 20
49.1229
 30
0.0000
 11
9.4601
 21
48.7334
 31
0.0000
  0
LINE
  8
21
 10
9.4601
 20
48.7334
 30
0.0000
 11
8.9408
 21
48.7334
 31
0.0000
  0
LINE
  8
21
 10
8.9408
 20
48.7334
 30
0.0000
 11
8.9408
 21
49.3825
 31
0.0000
  0
LINE
  8
21
 10
8.9408
 20
49.8115
 30
0.0000
 11
10.1092
 21
50.2010
 31
0.0000
  0
LINE
  8
21
 10
10.1092
 20
50.2010
 30
0.0000
 11
8.9408
 21
50.5905
 31
0.0000
  0
LINE
  8
21
 10
12.0361
 20
47.4493
 30
0.0000
 11
12.0361
 21
48.2283
 31
0.0000
  0
LINE
  8
21
 10
12.4255
 20
47.8388
 30
0.0000
 11
11.6466
 21
47.8388
 31
0.0000
  0
LINE
  8
21
 10
12.4905
 20
48.7334
 30
0.0000
 11
12.4905
 21
49.1229
 31
0.0000
  0
ARC
  8
21
 10
12.2308
 20
49.1229
 30
0.0000
 40
0.2596
 50
0.0000
 51
90.0000
  0
LINE
  8
21
 10
12.2308
 20
49.3825
 30
0.0000
 11
12.1010
 21
49.3825
 31
0.0000
  0
ARC
  8
21
 10
12.1010
 20
49.1229
 30
0.0000
 40
0.2596
 50
90.0000
 51
180.0000
  0
LINE
  8
21
 10
11.8413
 20
49.1229
 30
0.0000
 11
11.8413
 21
48.7334
 31
0.0000
  0
LINE
  8
21
 10
11.8413
 20
48.7334
 30
0.0000
 11
11.3221
 21
48.7334
 31
0.0000
  0
LINE
  8
21
 10
11.3221
 20
48.7334
 30
0.0000
 11
11.3221
 21
49.3825
 31
0.0000
  0
LINE
  8
21
 10
11.3221
 20
49.8115
 30
0.0000
 11
12.4905
 21
50.2010
 31
0.0000
  0
LINE
  8
21
 10
12.4905
 20
50.2010
 30
0.0000
 11
11.3221
 21
50.5905
 31
0.0000
  0
LINE
  8
21
 10
11.6057
 20
42.2564
 30
0.0000
 11
12.3846
 21
42.2564
 31
0.0000
  0
LINE
  8
21
 10
11.9952
 20
41.8670
 30
0.0000
 11
11.9952
 21
42.6459
 31
0.0000
  0
LINE
  8
21
 10
12.8898
 20
41.8021
 30
0.0000
 11
13.2793
 21
41.8021
 31
0.0000
  0
ARC
  8
21
 10
13.2793
 20
42.0617
 30
0.0000
 40
0.2596
 50
270.0000
 51
0.0000
  0
LINE
  8
21
 10
13.5389
 20
42.0617
 30
0.0000
 11
13.5389
 21
42.1915
 31
0.0000
  0
ARC
  8
21
 10
13.2793
 20
42.1915
 30
0.0000
 40
0.2596
 50
0.0000
 51
90.0000
  0
LINE
  8
21
 10
13.2793
 20
42.4512
 30
0.0000
 11
12.8898
 21
42.4512
 31
0.0000
  0
LINE
  8
21
 10
12.8898
 20
42.4512
 30
0.0000
 11
12.8898
 21
42.9704
 31
0.0000
  0
LINE
  8
21
 10
12.8898
 20
42.9704
 30
0.0000
 11
13.5389
 21
42.9704
 31
0.0000
  0
LINE
  8
21
 10
13.9679
 20
42.9704
 30
0.0000
 11
14.3574
 21
41.8021
 31
0.0000
  0
LINE
  8
21
 10
14.3574
 20
41.8021
 30
0.0000
 11
14.7468
 21
42.9704
 31
0.0000
  0
LINE
  8
21
 10
14.3813
 20
47.9573
 30
0.0000
 11
14.3813
 21
48.1521
 31
0.0000
  0
LINE
  8
21
 10
14.3813
 20
48.1521
 30
0.0000
 11
15.0305
 21
48.1521
 31
0.0000
  0
LINE
  8
21
 10
15.0305
 20
48.1521
 30
0.0000
 11
15.0305
 21
47.7626
 31
0.0000
  0
ARC
  8
21
 10
14.7708
 20
47.7626
 30
0.0000
 40
0.2596
 50
270.0000
 51
0.0000
  0
LINE
  8
21
 10
14.7708
 20
47.5029
 30
0.0000
 11
14.1217
 21
47.5029
 31
0.0000
  0
ARC
  8
21
 10
14.1217
 20
47.7626
 30
0.0000
 40
0.2596
 50
180.0014
 51
270.0000
  0
LINE
  8
21
 10
13.8620
 20
47.7626
 30
0.0000
 11
13.8620
 21
48.1521
 31
0.0000
  0
LINE
  8
21
 10
15.0305
 20
48.7221
 30
0.0000
 11
13.8620
 21
48.7221
 31
0.0000
  0
LINE
  8
21
 10
13.8620
 20
48.7221
 30
0.0000
 11
15.0305
 21
49.3713
 31
0.0000
  0
LINE
  8
21
 10
15.0305
 20
49.3713
 30
0.0000
 11
13.8620
 21
49.3713
 31
0.0000
  0
LINE
  8
21
 10
15.0305
 20
49.9413
 30
0.0000
 11
13.8620
 21
49.9413
 31
0.0000
  0
LINE
  8
21
 10
13.8620
 20
49.9413
 30
0.0000
 11
13.8620
 21
50.2659
 31
0.0000
  0
ARC
  8
21
 10
14.1866
 20
50.2659
 30
0.0000
 40
0.3246
 50
90.0000
 51
180.0000
  0
LINE
  8
21
 10
14.1866
 20
50.5905
 30
0.0000
 11
14.7059
 21
50.5905
 31
0.0000
  0
ARC
  8
21
 10
14.7059
 20
50.2659
 30
0.0000
 40
0.3246
 50
359.9994
 51
90.0000
  0
LINE
  8
21
 10
15.0305
 20
50.2659
 30
0.0000
 11
15.0305
 21
49.9413
 31
0.0000
  0
LINE
  8
21
 10
9.0869
 20
33.7891
 30
0.0000
 11
9.3479
 21
33.9979
 31
0.0000
  0
LINE
  8
21
 10
9.3479
 20
33.9979
 30
0.0000
 11
9.3479
 21
33.0581
 31
0.0000
  0
LINE
  8
21
 10
9.0869
 20
33.0581
 30
0.0000
 11
9.6090
 21
33.0581
 31
0.0000
  0
LINE
  8
21
 10
10.0317
 20
33.0581
 30
0.0000
 11
10.0317
 21
33.9979
 31
0.0000
  0
LINE
  8
21
 10
10.0317
 20
33.9979
 30
0.0000
 11
10.5538
 21
33.0581
 31
0.0000
  0
LINE
  8
21
 10
10.5538
 20
33.0581
 30
0.0000
 11
10.5538
 21
33.9979
 31
0.0000
  0
LINE
  8
21
 10
11.1855
 20
33.9979
 30
0.0000
 11
10.9766
 21
33.2669
 31
0.0000
  0
LINE
  8
21
 10
10.9766
 20
33.2669
 30
0.0000
 11
11.4987
 21
33.2669
 31
0.0000
  0
LINE
  8
21
 10
11.3421
 20
33.4758
 30
0.0000
 11
11.3421
 21
33.0581
 31
0.0000
  0
LINE
  8
21
 10
11.8910
 20
33.7891
 30
0.0000
 11
12.1521
 21
33.9979
 31
0.0000
  0
LINE
  8
21
 10
12.1521
 20
33.9979
 30
0.0000
 11
12.1521
 21
33.0581
 31
0.0000
  0
LINE
  8
21
 10
11.8910
 20
33.0581
 30
0.0000
 11
12.4131
 21
33.0581
 31
0.0000
  0
LINE
  8
21
 10
13.0142
 20
33.9979
 30
0.0000
 11
12.8054
 21
33.2669
 31
0.0000
  0
LINE
  8
21
 10
12.8054
 20
33.2669
 30
0.0000
 11
13.3275
 21
33.2669
 31
0.0000
  0
LINE
  8
21
 10
13.1709
 20
33.4758
 30
0.0000
 11
13.1709
 21
33.0581
 31
0.0000
  0
ARC
  8
21
 10
13.9809
 20
33.3192
 30
0.0000
 40
0.2611
 50
0.0000
 51
180.0000
  0
ARC
  8
21
 10
13.9809
 20
33.3192
 30
0.0000
 40
0.2611
 50
180.0000
 51
0.0000
  0
ARC
  8
21
 10
13.9809
 20
33.7891
 30
0.0000
 40
0.2088
 50
0.0000
 51
180.0000
  0
ARC
  8
21
 10
13.9809
 20
33.7891
 30
0.0000
 40
0.2088
 50
180.0000
 51
0.0000
  0
LINE
  8
21
 10
11.3094
 20
37.7578
 30
0.0000
 11
11.5704
 21
37.9667
 31
0.0000
  0
LINE
  8
21
 10
11.5704
 20
37.9667
 30
0.0000
 11
11.5704
 21
37.0269
 31
0.0000
  0
LINE
  8
21
 10
11.3094
 20
37.0269
 30
0.0000
 11
11.8315
 21
37.0269
 31
0.0000
  0
LINE
  8
21
 10
12.2560
 20
37.0269
 30
0.0000
 11
12.2560
 21
37.9667
 31
0.0000
  0
LINE
  8
21
 10
12.6737
 20
37.6534
 30
0.0000
 11
12.2560
 21
37.3401
 31
0.0000
  0
LINE
  8
21
 10
12.6737
 20
37.0269
 30
0.0000
 11
12.4387
 21
37.4706
 31
0.0000
  0
LINE
  8
21
 10
9.5631
 20
39.8844
 30
0.0000
 11
9.8242
 21
39.8844
 31
0.0000
  0
ARC
  8
21
 10
9.8242
 20
40.1454
 30
0.0000
 40
0.2611
 50
270.0000
 51
90.0000
  0
LINE
  8
21
 10
9.5631
 20
40.8242
 30
0.0000
 11
9.8764
 21
40.8242
 31
0.0000
  0
ARC
  8
21
 10
9.8764
 20
40.6153
 30
0.0000
 40
0.2088
 50
270.0000
 51
90.0000
  0
LINE
  8
21
 10
9.8764
 20
40.4065
 30
0.0000
 11
9.6675
 21
40.4065
 31
0.0000
  0
LINE
  8
21
 10
10.4775
 20
39.8844
 30
0.0000
 11
10.7386
 21
39.8844
 31
0.0000
  0
ARC
  8
21
 10
10.7386
 20
40.1454
 30
0.0000
 40
0.2611
 50
270.0000
 51
90.0000
  0
LINE
  8
21
 10
10.4775
 20
40.8242
 30
0.0000
 11
10.7908
 21
40.8242
 31
0.0000
  0
ARC
  8
21
 10
10.7908
 20
40.6153
 30
0.0000
 40
0.2088
 50
270.0000
 51
90.0000
  0
LINE
  8
21
 10
10.7908
 20
40.4065
 30
0.0000
 11
10.5819
 21
40.4065
 31
0.0000
  0
ARC
  8
21
 10
12.1664
 20
40.3543
 30
0.0000
 40
0.7745
 50
154.0110
 51
180.0001
  0
ARC
  8
21
 10
11.6529
 20
40.6310
 30
0.0000
 40
0.1932
 50
90.0003
 51
161.0756
  0
ARC
  8
21
 10
11.6529
 20
40.6310
 30
0.0000
 40
0.1932
 50
18.9247
 51
90.0003
  0
ARC
  8
21
 10
11.1395
 20
40.3543
 30
0.0000
 40
0.7745
 50
359.9999
 51
25.9890
  0
ARC
  8
21
 10
12.1664
 20
40.3543
 30
0.0000
 40
0.7745
 50
180.0000
 51
205.9887
  0
ARC
  8
21
 10
11.6529
 20
40.0775
 30
0.0000
 40
0.1932
 50
198.9255
 51
269.9999
  0
ARC
  8
21
 10
11.1395
 20
40.3543
 30
0.0000
 40
0.7745
 50
334.0113
 51
360.0000
  0
ARC
  8
21
 10
11.6529
 20
40.0775
 30
0.0000
 40
0.1932
 50
270.0000
 51
341.0747
  0
LINE
  8
21
 10
11.4441
 20
40.0932
 30
0.0000
 11
11.8618
 21
40.6153
 31
0.0000
  0
LINE
  8
21
 10
12.3425
 20
39.8844
 30
0.0000
 11
12.3425
 21
40.8242
 31
0.0000
  0
LINE
  8
21
 10
12.3425
 20
40.8242
 30
0.0000
 11
12.6035
 21
40.8242
 31
0.0000
  0
ARC
  8
21
 10
12.6035
 20
40.5631
 30
0.0000
 40
0.2611
 50
270.0000
 51
90.0000
  0
LINE
  8
21
 10
12.6035
 20
40.3020
 30
0.0000
 11
12.3425
 21
40.3020
 31
0.0000
  0
LINE
  8
21
 10
12.8646
 20
39.8844
 30
0.0000
 11
12.6557
 21
40.3020
 31
0.0000
  0
LINE
  8
21
 10
42.4713
 20
13.3800
 30
0.0000
 11
42.4713
 21
8.3000
 31
0.0000
  0
LINE
  8
21
 10
39.9312
 20
8.3000
 30
0.0000
 11
42.4713
 21
8.3000
 31
0.0000
  0
LINE
  8
21
 10
39.9312
 20
8.3000
 30
0.0000
 11
39.9312
 21
13.3800
 31
0.0000
  0
LINE
  8
21
 10
42.4713
 20
13.3800
 30
0.0000
 11
39.9312
 21
13.3800
 31
0.0000
  0
LINE
  8
21
 10
21.5900
 20
41.1163
 30
0.0000
 11
16.5100
 21
41.1163
 31
0.0000
  0
LINE
  8
21
 10
16.5100
 20
43.6563
 30
0.0000
 11
16.5100
 21
41.1163
 31
0.0000
  0
LINE
  8
21
 10
16.5100
 20
43.6563
 30
0.0000
 11
21.5900
 21
43.6563
 31
0.0000
  0
LINE
  8
21
 10
21.5900
 20
41.1163
 30
0.0000
 11
21.5900
 21
43.6563
 31
0.0000
  0
LINE
  8
21
 10
7.3025
 20
31.5913
 30
0.0000
 11
12.3825
 21
31.5913
 31
0.0000
  0
LINE
  8
21
 10
12.3825
 20
29.0513
 30
0.0000
 11
12.3825
 21
31.5913
 31
0.0000
  0
LINE
  8
21
 10
12.3825
 20
29.0513
 30
0.0000
 11
7.3025
 21
29.0513
 31
0.0000
  0
LINE
  8
21
 10
7.3025
 20
31.5913
 30
0.0000
 11
7.3025
 21
29.0513
 31
0.0000
  0
LINE
  8
21
 10
12.2238
 20
13.1763
 30
0.0000
 11
12.2238
 21
18.2563
 31
0.0000
  0
LINE
  8
21
 10
14.7637
 20
18.2563
 30
0.0000
 11
12.2238
 21
18.2563
 31
0.0000
  0
LINE
  8
21
 10
14.7637
 20
18.2563
 30
0.0000
 11
14.7637
 21
13.1763
 31
0.0000
  0
LINE
  8
21
 10
12.2238
 20
13.1763
 30
0.0000
 11
14.7637
 21
13.1763
 31
0.0000
  0
LINE
  8
21
 10
8.9775
 20
36.0425
 30
0.0000
 11
11.9775
 21
36.0425
 31
0.0000
  0
LINE
  8
21
 10
11.9775
 20
36.0425
 30
0.0000
 11
11.9775
 21
34.4425
 31
0.0000
  0
LINE
  8
21
 10
11.9775
 20
34.4425
 30
0.0000
 11
8.9775
 21
34.4425
 31
0.0000
  0
LINE
  8
21
 10
8.9775
 20
34.4425
 30
0.0000
 11
8.9775
 21
36.0425
 31
0.0000
  0
CIRCLE
  8
51
 10
6.4775
 20
35.2425
 30
0.0000
 40
0.3000
  0
CIRCLE
  8
51
 10
14.4775
 20
35.2425
 30
0.0000
 40
0.3000
  0
INSERT
  8
21
  2
RECT
 10
11.3775
 20
35.2425
 30
0.0000
 41
0.4000
 42
1.6000
 43
1.0000
 50
0.0000
  0
INSERT
  8
21
  2
RECT
 10
8.0775
 20
35.2425
 30
0.0000
 41
1.8000
 42
0.6000
 43
1.0000
 50
0.0000
  0
INSERT
  8
21
  2
RECT
 10
12.8775
 20
35.2425
 30
0.0000
 41
1.8000
 42
0.6000
 43
1.0000
 50
0.0000
  0
INSERT
  8
51
  2
RECT
 10
6.8275
 20
35.2425
 30
0.0000
 41
0.7000
 42
0.6000
 43
1.0000
 50
0.0000
  0
INSERT
  8
51
  2
RECT
 10
14.1275
 20
35.2425
 30
0.0000
 41
0.7000
 42
0.6000
 43
1.0000
 50
0.0000
  0
CIRCLE
  8
21
 10
4.0000
 20
51.0000
 30
0.0000
 40
1.5875
  0
CIRCLE
  8
21
 10
4.0000
 20
51.0000
 30
0.0000
 40
3.1000
  0
CIRCLE
  8
21
 10
49.0000
 20
51.0000
 30
0.0000
 40
1.5875
  0
CIRCLE
  8
21
 10
49.0000
 20
51.0000
 30
0.0000
 40
3.1000
  0
LINE
  8
21
 10
32.6707
 20
38.7985
 30
0.0000
 11
15.9068
 21
38.7985
 31
0.0000
  0
LINE
  8
21
 10
15.9068
 20
32.9565
 30
0.0000
 11
32.6707
 21
32.9565
 31
0.0000
  0
LINE
  8
21
 10
32.6707
 20
38.7985
 30
0.0000
 11
32.6707
 21
32.9565
 31
0.0000
  0
LINE
  8
21
 10
15.9068
 20
38.7985
 30
0.0000
 11
15.9068
 21
36.8935
 31
0.0000
  0
LINE
  8
21
 10
15.9068
 20
32.9565
 30
0.0000
 11
15.9068
 21
34.8615
 31
0.0000
  0
ARC
  8
21
 10
15.9068
 20
35.8775
 30
0.0000
 40
1.0160
 50
270.0000
 51
90.0000
  0
LINE
  8
21
 10
32.6707
 20
28.4798
 30
0.0000
 11
15.9068
 21
28.4798
 31
0.0000
  0
LINE
  8
21
 10
15.9068
 20
22.6378
 30
0.0000
 11
32.6707
 21
22.6378
 31
0.0000
  0
LINE
  8
21
 10
32.6707
 20
28.4798
 30
0.0000
 11
32.6707
 21
22.6378
 31
0.0000
  0
LINE
  8
21
 10
15.9068
 20
28.4798
 30
0.0000
 11
15.9068
 21
26.5748
 31
0.0000
  0
LINE
  8
21
 10
15.9068
 20
22.6378
 30
0.0000
 11
15.9068
 21
24.5428
 31
0.0000
  0
ARC
  8
21
 10
15.9068
 20
25.5587
 30
0.0000
 40
1.0160
 50
270.0000
 51
90.0000
  0
LINE
  8
21
 10
32.6707
 20
18.1610
 30
0.0000
 11
15.9068
 21
18.1610
 31
0.0000
  0
LINE
  8
21
 10
15.9068
 20
12.3190
 30
0.0000
 11
32.6707
 21
12.3190
 31
0.0000
  0
LINE
  8
21
 10
32.6707
 20
18.1610
 30
0.0000
 11
32.6707
 21
12.3190
 31
0.0000
  0
LINE
  8
21
 10
15.9068
 20
18.1610
 30
0.0000
 11
15.9068
 21
16.2560
 31
0.0000
  0
LINE
  8
21
 10
15.9068
 20
12.3190
 30
0.0000
 11
15.9068
 21
14.2240
 31
0.0000
  0
ARC
  8
21
 10
15.9068
 20
15.2400
 30
0.0000
 40
1.0160
 50
270.0000
 51
90.0000
  0
LINE
  8
51
 10
49.4500
 20
0.1000
 30
0.0000
 11
49.4500
 21
4.0000
 31
0.0000
  0
LINE
  8
51
 10
47.4500
 20
0.1000
 30
0.0000
 11
47.4500
 21
4.0000
 31
0.0000
  0
ARC
  8
51
 10
48.4500
 20
4.0000
 30
0.0000
 40
1.0000
 50
0.0000
 51
180.0000
  0
ARC
  8
51
 10
48.4500
 20
3.0000
 30
0.0000
 40
0.5000
 50
0.0000
 51
180.0000
  0
LINE
  8
51
 10
48.9500
 20
3.0000
 30
0.0000
 11
48.9500
 21
2.0000
 31
0.0000
  0
LINE
  8
51
 10
47.9500
 20
3.0000
 30
0.0000
 11
47.9500
 21
2.0000
 31
0.0000
  0
ARC
  8
51
 10
48.4500
 20
2.0000
 30
0.0000
 40
0.5000
 50
180.0000
 51
0.0000
  0
LINE
  8
21
 10
49.4500
 20
0.1000
 30
0.0000
 11
49.4500
 21
-1.0000
 31
0.0000
  0
LINE
  8
21
 10
47.4500
 20
0.1000
 30
0.0000
 11
47.4500
 21
-1.0000
 31
0.0000
  0
LINE
  8
21
 10
46.7200
 20
-1.0000
 30
0.0000
 11
46.7200
 21
0.0000
 31
0.0000
  0
LINE
  8
21
 10
46.7200
 20
0.0000
 30
0.0000
 11
46.2200
 21
0.0000
 31
0.0000
  0
LINE
  8
21
 10
46.2200
 20
0.0000
 30
0.0000
 11
46.2200
 21
-1.0000
 31
0.0000
  0
LINE
  8
21
 10
50.6800
 20
-1.0000
 30
0.0000
 11
50.6800
 21
0.0000
 31
0.0000
  0
LINE
  8
21
 10
50.6800
 20
0.0000
 30
0.0000
 11
50.1800
 21
0.0000
 31
0.0000
  0
LINE
  8
21
 10
50.1800
 20
0.0000
 30
0.0000
 11
50.1800
 21
-1.0000
 31
0.0000
  0
LINE
  8
51
 10
45.4900
 20
0.1000
 30
0.0000
 11
45.4900
 21
4.0000
 31
0.0000
  0
LINE
  8
51
 10
43.4900
 20
0.1000
 30
0.0000
 11
43.4900
 21
4.0000
 31
0.0000
  0
ARC
  8
51
 10
44.4900
 20
4.0000
 30
0.0000
 40
1.0000
 50
0.0000
 51
180.0000
  0
ARC
  8
51
 10
44.4900
 20
3.0000
 30
0.0000
 40
0.5000
 50
0.0000
 51
180.0000
  0
LINE
  8
51
 10
44.9900
 20
3.0000
 30
0.0000
 11
44.9900
 21
2.0000
 31
0.0000
  0
LINE
  8
51
 10
43.9900
 20
3.0000
 30
0.0000
 11
43.9900
 21
2.0000
 31
0.0000
  0
ARC
  8
51
 10
44.4900
 20
2.0000
 30
0.0000
 40
0.5000
 50
180.0000
 51
0.0000
  0
LINE
  8
21
 10
45.4900
 20
0.1000
 30
0.0000
 11
45.4900
 21
-1.0000
 31
0.0000
  0
LINE
  8
21
 10
43.4900
 20
0.1000
 30
0.0000
 11
43.4900
 21
-1.0000
 31
0.0000
  0
LINE
  8
21
 10
42.7600
 20
-1.0000
 30
0.0000
 11
42.7600
 21
0.0000
 31
0.0000
  0
LINE
  8
21
 10
42.7600
 20
0.0000
 30
0.0000
 11
42.2600
 21
0.0000
 31
0.0000
  0
LINE
  8
21
 10
42.2600
 20
0.0000
 30
0.0000
 11
42.2600
 21
-1.0000
 31
0.0000
  0
LINE
  8
51
 10
41.5300
 20
0.1000
 30
0.0000
 11
41.5300
 21
4.0000
 31
0.0000
  0
LINE
  8
51
 10
39.5300
 20
0.1000
 30
0.0000
 11
39.5300
 21
4.0000
 31
0.0000
  0
ARC
  8
51
 10
40.5300
 20
4.0000
 30
0.0000
 40
1.0000
 50
0.0000
 51
180.0000
  0
ARC
  8
51
 10
40.5300
 20
3.0000
 30
0.0000
 40
0.5000
 50
0.0000
 51
180.0000
  0
LINE
  8
51
 10
41.0300
 20
3.0000
 30
0.0000
 11
41.0300
 21
2.0000
 31
0.0000
  0
LINE
  8
51
 10
40.0300
 20
3.0000
 30
0.0000
 11
40.0300
 21
2.0000
 31
0.0000
  0
ARC
  8
51
 10
40.5300
 20
2.0000
 30
0.0000
 40
0.5000
 50
180.0000
 51
0.0000
  0
LINE
  8
21
 10
41.5300
 20
0.1000
 30
0.0000
 11
41.5300
 21
-1.0000
 31
0.0000
  0
LINE
  8
21
 10
39.5300
 20
0.1000
 30
0.0000
 11
39.5300
 21
-1.0000
 31
0.0000
  0
LINE
  8
21
 10
38.8000
 20
-1.0000
 30
0.0000
 11
38.8000
 21
0.0000
 31
0.0000
  0
LINE
  8
21
 10
38.8000
 20
0.0000
 30
0.0000
 11
38.3000
 21
0.0000
 31
0.0000
  0
LINE
  8
21
 10
38.3000
 20
0.0000
 30
0.0000
 11
38.3000
 21
-1.0000
 31
0.0000
  0
LINE
  8
51
 10
37.5700
 20
0.1000
 30
0.0000
 11
37.5700
 21
4.0000
 31
0.0000
  0
LINE
  8
51
 10
35.5700
 20
0.1000
 30
0.0000
 11
35.5700
 21
4.0000
 31
0.0000
  0
ARC
  8
51
 10
36.5700
 20
4.0000
 30
0.0000
 40
1.0000
 50
0.0000
 51
180.0000
  0
ARC
  8
51
 10
36.5700
 20
3.0000
 30
0.0000
 40
0.5000
 50
0.0000
 51
180.0000
  0
LINE
  8
51
 10
37.0700
 20
3.0000
 30
0.0000
 11
37.0700
 21
2.0000
 31
0.0000
  0
LINE
  8
51
 10
36.0700
 20
3.0000
 30
0.0000
 11
36.0700
 21
2.0000
 31
0.0000
  0
ARC
  8
51
 10
36.5700
 20
2.0000
 30
0.0000
 40
0.5000
 50
180.0000
 51
0.0000
  0
LINE
  8
21
 10
37.5700
 20
0.1000
 30
0.0000
 11
37.5700
 21
-1.0000
 31
0.0000
  0
LINE
  8
21
 10
35.5700
 20
0.1000
 30
0.0000
 11
35.5700
 21
-1.0000
 31
0.0000
  0
LINE
  8
21
 10
34.8400
 20
-1.0000
 30
0.0000
 11
34.8400
 21
0.0000
 31
0.0000
  0
LINE
  8
21
 10
34.8400
 20
0.0000
 30
0.0000
 11
34.3400
 21
0.0000
 31
0.0000
  0
LINE
  8
21
 10
34.3400
 20
0.0000
 30
0.0000
 11
34.3400
 21
-1.0000
 31
0.0000
  0
LINE
  8
51
 10
33.6100
 20
0.1000
 30
0.0000
 11
33.6100
 21
4.0000
 31
0.0000
  0
LINE
  8
51
 10
31.6100
 20
0.1000
 30
0.0000
 11
31.6100
 21
4.0000
 31
0.0000
  0
ARC
  8
51
 10
32.6100
 20
4.0000
 30
0.0000
 40
1.0000
 50
0.0000
 51
180.0000
  0
ARC
  8
51
 10
32.6100
 20
3.0000
 30
0.0000
 40
0.5000
 50
0.0000
 51
180.0000
  0
LINE
  8
51
 10
33.1100
 20
3.0000
 30
0.0000
 11
33.1100
 21
2.0000
 31
0.0000
  0
LINE
  8
51
 10
32.1100
 20
3.0000
 30
0.0000
 11
32.1100
 21
2.0000
 31
0.0000
  0
ARC
  8
51
 10
32.6100
 20
2.0000
 30
0.0000
 40
0.5000
 50
180.0000
 51
0.0000
  0
LINE
  8
21
 10
33.6100
 20
0.1000
 30
0.0000
 11
33.6100
 21
-1.0000
 31
0.0000
  0
LINE
  8
21
 10
31.6100
 20
0.1000
 30
0.0000
 11
31.6100
 21
-1.0000
 31
0.0000
  0
LINE
  8
21
 10
30.8800
 20
-1.0000
 30
0.0000
 11
30.8800
 21
0.0000
 31
0.0000
  0
LINE
  8
21
 10
30.8800
 20
0.0000
 30
0.0000
 11
30.3800
 21
0.0000
 31
0.0000
  0
LINE
  8
21
 10
30.3800
 20
0.0000
 30
0.0000
 11
30.3800
 21
-1.0000
 31
0.0000
  0
LINE
  8
51
 10
29.6500
 20
0.1000
 30
0.0000
 11
29.6500
 21
4.0000
 31
0.0000
  0
LINE
  8
51
 10
27.6500
 20
0.1000
 30
0.0000
 11
27.6500
 21
4.0000
 31
0.0000
  0
ARC
  8
51
 10
28.6500
 20
4.0000
 30
0.0000
 40
1.0000
 50
0.0000
 51
180.0000
  0
ARC
  8
51
 10
28.6500
 20
3.0000
 30
0.0000
 40
0.5000
 50
0.0000
 51
180.0000
  0
LINE
  8
51
 10
29.1500
 20
3.0000
 30
0.0000
 11
29.1500
 21
2.0000
 31
0.0000
  0
LINE
  8
51
 10
28.1500
 20
3.0000
 30
0.0000
 11
28.1500
 21
2.0000
 31
0.0000
  0
ARC
  8
51
 10
28.6500
 20
2.0000
 30
0.0000
 40
0.5000
 50
180.0000
 51
0.0000
  0
LINE
  8
21
 10
29.6500
 20
0.1000
 30
0.0000
 11
29.6500
 21
-1.0000
 31
0.0000
  0
LINE
  8
21
 10
27.6500
 20
0.1000
 30
0.0000
 11
27.6500
 21
-1.0000
 31
0.0000
  0
LINE
  8
21
 10
26.9200
 20
-1.0000
 30
0.0000
 11
26.9200
 21
0.0000
 31
0.0000
  0
LINE
  8
21
 10
26.9200
 20
0.0000
 30
0.0000
 11
26.4200
 21
0.0000
 31
0.0000
  0
LINE
  8
21
 10
26.4200
 20
0.0000
 30
0.0000
 11
26.4200
 21
-1.0000
 31
0.0000
  0
LINE
  8
51
 10
25.6900
 20
0.1000
 30
0.0000
 11
25.6900
 21
4.0000
 31
0.0000
  0
LINE
  8
51
 10
23.6900
 20
0.1000
 30
0.0000
 11
23.6900
 21
4.0000
 31
0.0000
  0
ARC
  8
51
 10
24.6900
 20
4.0000
 30
0.0000
 40
1.0000
 50
0.0000
 51
180.0000
  0
ARC
  8
51
 10
24.6900
 20
3.0000
 30
0.0000
 40
0.5000
 50
0.0000
 51
180.0000
  0
LINE
  8
51
 10
25.1900
 20
3.0000
 30
0.0000
 11
25.1900
 21
2.0000
 31
0.0000
  0
LINE
  8
51
 10
24.1900
 20
3.0000
 30
0.0000
 11
24.1900
 21
2.0000
 31
0.0000
  0
ARC
  8
51
 10
24.6900
 20
2.0000
 30
0.0000
 40
0.5000
 50
180.0000
 51
0.0000
  0
LINE
  8
21
 10
25.6900
 20
0.1000
 30
0.0000
 11
25.6900
 21
-1.0000
 31
0.0000
  0
LINE
  8
21
 10
23.6900
 20
0.1000
 30
0.0000
 11
23.6900
 21
-1.0000
 31
0.0000
  0
LINE
  8
21
 10
22.9600
 20
-1.0000
 30
0.0000
 11
22.9600
 21
0.0000
 31
0.0000
  0
LINE
  8
21
 10
22.9600
 20
0.0000
 30
0.0000
 11
22.4600
 21
0.0000
 31
0.0000
  0
LINE
  8
21
 10
22.4600
 20
0.0000
 30
0.0000
 11
22.4600
 21
-1.0000
 31
0.0000
  0
LINE
  8
51
 10
21.7300
 20
0.1000
 30
0.0000
 11
21.7300
 21
4.0000
 31
0.0000
  0
LINE
  8
51
 10
19.7300
 20
0.1000
 30
0.0000
 11
19.7300
 21
4.0000
 31
0.0000
  0
ARC
  8
51
 10
20.7300
 20
4.0000
 30
0.0000
 40
1.0000
 50
0.0000
 51
180.0000
  0
ARC
  8
51
 10
20.7300
 20
3.0000
 30
0.0000
 40
0.5000
 50
0.0000
 51
180.0000
  0
LINE
  8
51
 10
21.2300
 20
3.0000
 30
0.0000
 11
21.2300
 21
2.0000
 31
0.0000
  0
LINE
  8
51
 10
20.2300
 20
3.0000
 30
0.0000
 11
20.2300
 21
2.0000
 31
0.0000
  0
ARC
  8
51
 10
20.7300
 20
2.0000
 30
0.0000
 40
0.5000
 50
180.0000
 51
0.0000
  0
LINE
  8
21
 10
21.7300
 20
0.1000
 30
0.0000
 11
21.7300
 21
-1.0000
 31
0.0000
  0
LINE
  8
21
 10
19.7300
 20
0.1000
 30
0.0000
 11
19.7300
 21
-1.0000
 31
0.0000
  0
LINE
  8
21
 10
19.0000
 20
-1.0000
 30
0.0000
 11
19.0000
 21
0.0000
 31
0.0000
  0
LINE
  8
21
 10
19.0000
 20
0.0000
 30
0.0000
 11
18.5000
 21
0.0000
 31
0.0000
  0
LINE
  8
21
 10
18.5000
 20
0.0000
 30
0.0000
 11
18.5000
 21
-1.0000
 31
0.0000
  0
LINE
  8
51
 10
17.7700
 20
0.1000
 30
0.0000
 11
17.7700
 21
4.0000
 31
0.0000
  0
LINE
  8
51
 10
15.7700
 20
0.1000
 30
0.0000
 11
15.7700
 21
4.0000
 31
0.0000
  0
ARC
  8
51
 10
16.7700
 20
4.0000
 30
0.0000
 40
1.0000
 50
0.0000
 51
180.0000
  0
ARC
  8
51
 10
16.7700
 20
3.0000
 30
0.0000
 40
0.5000
 50
0.0000
 51
180.0000
  0
LINE
  8
51
 10
17.2700
 20
3.0000
 30
0.0000
 11
17.2700
 21
2.0000
 31
0.0000
  0
LINE
  8
51
 10
16.2700
 20
3.0000
 30
0.0000
 11
16.2700
 21
2.0000
 31
0.0000
  0
ARC
  8
51
 10
16.7700
 20
2.0000
 30
0.0000
 40
0.5000
 50
180.0000
 51
0.0000
  0
LINE
  8
21
 10
17.7700
 20
0.1000
 30
0.0000
 11
17.7700
 21
-1.0000
 31
0.0000
  0
LINE
  8
21
 10
15.7700
 20
0.1000
 30
0.0000
 11
15.7700
 21
-1.0000
 31
0.0000
  0
LINE
  8
21
 10
15.0400
 20
-1.0000
 30
0.0000
 11
15.0400
 21
0.0000
 31
0.0000
  0
LINE
  8
21
 10
15.0400
 20
0.0000
 30
0.0000
 11
14.5400
 21
0.0000
 31
0.0000
  0
LINE
  8
21
 10
14.5400
 20
0.0000
 30
0.0000
 11
14.5400
 21
-1.0000
 31
0.0000
  0
LINE
  8
51
 10
13.8100
 20
0.1000
 30
0.0000
 11
13.8100
 21
4.0000
 31
0.0000
  0
LINE
  8
51
 10
11.8100
 20
0.1000
 30
0.0000
 11
11.8100
 21
4.0000
 31
0.0000
  0
ARC
  8
51
 10
12.8100
 20
4.0000
 30
0.0000
 40
1.0000
 50
0.0000
 51
180.0000
  0
ARC
  8
51
 10
12.8100
 20
3.0000
 30
0.0000
 40
0.5000
 50
0.0000
 51
180.0000
  0
LINE
  8
51
 10
13.3100
 20
3.0000
 30
0.0000
 11
13.3100
 21
2.0000
 31
0.0000
  0
LINE
  8
51
 10
12.3100
 20
3.0000
 30
0.0000
 11
12.3100
 21
2.0000
 31
0.0000
  0
ARC
  8
51
 10
12.8100
 20
2.0000
 30
0.0000
 40
0.5000
 50
180.0000
 51
0.0000
  0
LINE
  8
21
 10
13.8100
 20
0.1000
 30
0.0000
 11
13.8100
 21
-1.0000
 31
0.0000
  0
LINE
  8
21
 10
11.8100
 20
0.1000
 30
0.0000
 11
11.8100
 21
-1.0000
 31
0.0000
  0
LINE
  8
21
 10
11.0800
 20
-1.0000
 30
0.0000
 11
11.0800
 21
0.0000
 31
0.0000
  0
LINE
  8
21
 10
11.0800
 20
0.0000
 30
0.0000
 11
10.5800
 21
0.0000
 31
0.0000
  0
LINE
  8
21
 10
10.5800
 20
0.0000
 30
0.0000
 11
10.5800
 21
-1.0000
 31
0.0000
  0
LINE
  8
51
 10
9.8500
 20
0.1000
 30
0.0000
 11
9.8500
 21
4.0000
 31
0.0000
  0
LINE
  8
51
 10
7.8500
 20
0.1000
 30
0.0000
 11
7.8500
 21
4.0000
 31
0.0000
  0
ARC
  8
51
 10
8.8500
 20
4.0000
 30
0.0000
 40
1.0000
 50
0.0000
 51
180.0000
  0
ARC
  8
51
 10
8.8500
 20
3.0000
 30
0.0000
 40
0.5000
 50
0.0000
 51
180.0000
  0
LINE
  8
51
 10
9.3500
 20
3.0000
 30
0.0000
 11
9.3500
 21
2.0000
 31
0.0000
  0
LINE
  8
51
 10
8.3500
 20
3.0000
 30
0.0000
 11
8.3500
 21
2.0000
 31
0.0000
  0
ARC
  8
51
 10
8.8500
 20
2.0000
 30
0.0000
 40
0.5000
 50
180.0000
 51
0.0000
  0
LINE
  8
21
 10
9.8500
 20
0.1000
 30
0.0000
 11
9.8500
 21
-1.0000
 31
0.0000
  0
LINE
  8
21
 10
7.8500
 20
0.1000
 30
0.0000
 11
7.8500
 21
-1.0000
 31
0.0000
  0
LINE
  8
21
 10
7.1200
 20
-1.0000
 30
0.0000
 11
7.1200
 21
0.0000
 31
0.0000
  0
LINE
  8
21
 10
7.1200
 20
0.0000
 30
0.0000
 11
6.6200
 21
0.0000
 31
0.0000
  0
LINE
  8
21
 10
6.6200
 20
0.0000
 30
0.0000
 11
6.6200
 21
-1.0000
 31
0.0000
  0
LINE
  8
51
 10
5.8900
 20
0.1000
 30
0.0000
 11
5.8900
 21
4.0000
 31
0.0000
  0
LINE
  8
51
 10
3.8900
 20
0.1000
 30
0.0000
 11
3.8900
 21
4.0000
 31
0.0000
  0
ARC
  8
51
 10
4.8900
 20
4.0000
 30
0.0000
 40
1.0000
 50
0.0000
 51
180.0000
  0
ARC
  8
51
 10
4.8900
 20
3.0000
 30
0.0000
 40
0.5000
 50
0.0000
 51
180.0000
  0
LINE
  8
51
 10
5.3900
 20
3.0000
 30
0.0000
 11
5.3900
 21
2.0000
 31
0.0000
  0
LINE
  8
51
 10
4.3900
 20
3.0000
 30
0.0000
 11
4.3900
 21
2.0000
 31
0.0000
  0
ARC
  8
51
 10
4.8900
 20
2.0000
 30
0.0000
 40
0.5000
 50
180.0000
 51
0.0000
  0
LINE
  8
21
 10
5.8900
 20
0.1000
 30
0.0000
 11
5.8900
 21
-1.0000
 31
0.0000
  0
LINE
  8
21
 10
3.8900
 20
0.1000
 30
0.0000
 11
3.8900
 21
-1.0000
 31
0.0000
  0
LINE
  8
21
 10
3.1600
 20
-1.0000
 30
0.0000
 11
3.1600
 21
0.0000
 31
0.0000
  0
LINE
  8
21
 10
3.1600
 20
0.0000
 30
0.0000
 11
2.6600
 21
0.0000
 31
0.0000
  0
LINE
  8
21
 10
2.6600
 20
0.0000
 30
0.0000
 11
2.6600
 21
-1.0000
 31
0.0000
  0
LINE
  8
21
 10
60.9200
 20
0.0000
 30
0.0000
 11
60.9200
 21
-6.8000
 31
0.0000
  0
LINE
  8
21
 10
-7.5800
 20
0.0000
 30
0.0000
 11
-7.5800
 21
-6.8000
 31
0.0000
  0
LINE
  8
21
 10
53.4700
 20
-1.0000
 30
0.0000
 11
-0.1300
 21
-1.0000
 31
0.0000
  0
LINE
  8
21
 10
-0.1300
 20
-1.0000
 30
0.0000
 11
-0.1300
 21
0.0000
 31
0.0000
  0
LINE
  8
21
 10
-0.1300
 20
0.0000
 30
0.0000
 11
-2.6300
 21
0.0000
 31
0.0000
  0
LINE
  8
21
 10
-2.6300
 20
0.0000
 30
0.0000
 11
-4.3300
 21
0.0000
 31
0.0000
  0
LINE
  8
21
 10
-4.3300
 20
0.0000
 30
0.0000
 11
-6.0300
 21
0.0000
 31
0.0000
  0
LINE
  8
21
 10
-6.0300
 20
0.0000
 30
0.0000
 11
-7.5800
 21
0.0000
 31
0.0000
  0
LINE
  8
21
 10
60.9200
 20
0.0000
 30
0.0000
 11
59.3700
 21
0.0000
 31
0.0000
  0
LINE
  8
21
 10
59.3700
 20
0.0000
 30
0.0000
 11
57.6700
 21
0.0000
 31
0.0000
  0
LINE
  8
21
 10
57.6700
 20
0.0000
 30
0.0000
 11
55.9700
 21
0.0000
 31
0.0000
  0
LINE
  8
21
 10
55.9700
 20
0.0000
 30
0.0000
 11
53.4700
 21
0.0000
 31
0.0000
  0
LINE
  8
21
 10
53.4700
 20
0.0000
 30
0.0000
 11
53.4700
 21
-1.0000
 31
0.0000
  0
LINE
  8
21
 10
54.1700
 20
-11.6000
 30
0.0000
 11
-0.8300
 21
-11.6000
 31
0.0000
  0
LINE
  8
21
 10
-0.8300
 20
-11.6000
 30
0.0000
 11
-0.8300
 21
-6.8000
 31
0.0000
  0
LINE
  8
21
 10
-0.8300
 20
-6.8000
 30
0.0000
 11
-2.6300
 21
-6.8000
 31
0.0000
  0
LINE
  8
21
 10
-2.6300
 20
-6.8000
 30
0.0000
 11
-6.0300
 21
-6.8000
 31
0.0000
  0
LINE
  8
21
 10
-6.0300
 20
-6.8000
 30
0.0000
 11
-7.5800
 21
-6.8000
 31
0.0000
  0
LINE
  8
21
 10
60.9200
 20
-6.8000
 30
0.0000
 11
59.3700
 21
-6.8000
 31
0.0000
  0
LINE
  8
21
 10
59.3700
 20
-6.8000
 30
0.0000
 11
55.9700
 21
-6.8000
 31
0.0000
  0
LINE
  8
21
 10
55.9700
 20
-6.8000
 30
0.0000
 11
54.1700
 21
-6.8000
 31
0.0000
  0
LINE
  8
21
 10
54.1700
 20
-6.8000
 30
0.0000
 11
54.1700
 21
-11.6000
 31
0.0000
  0
LINE
  8
21
 10
-4.3300
 20
0.0000
 30
0.0000
 11
-4.3300
 21
-2.8667
 31
0.0000
  0
LINE
  8
21
 10
-4.3300
 20
-3.5480
 30
0.0000
 11
-4.3300
 21
-3.6853
 31
0.0000
  0
LINE
  8
21
 10
-4.3300
 20
-4.3667
 30
0.0000
 11
-4.3300
 21
-7.2333
 31
0.0000
  0
LINE
  8
21
 10
-4.3300
 20
-7.9147
 30
0.0000
 11
-4.3300
 21
-8.0520
 31
0.0000
  0
LINE
  8
21
 10
-4.3300
 20
-8.7333
 30
0.0000
 11
-4.3300
 21
-11.6000
 31
0.0000
  0
LINE
  8
21
 10
57.6700
 20
-11.6000
 30
0.0000
 11
57.6700
 21
-8.7333
 31
0.0000
  0
LINE
  8
21
 10
57.6700
 20
-8.0520
 30
0.0000
 11
57.6700
 21
-7.9147
 31
0.0000
  0
LINE
  8
21
 10
57.6700
 20
-7.2333
 30
0.0000
 11
57.6700
 21
-4.3667
 31
0.0000
  0
LINE
  8
21
 10
57.6700
 20
-3.6853
 30
0.0000
 11
57.6700
 21
-3.5480
 31
0.0000
  0
LINE
  8
21
 10
57.6700
 20
-2.8667
 30
0.0000
 11
57.6700
 21
0.0000
 31
0.0000
  0
LINE
  8
21
 10
-6.0300
 20
-6.8000
 30
0.0000
 11
-6.0300
 21
-5.2000
 31
0.0000
  0
LINE
  8
21
 10
-6.0300
 20
-4.2000
 30
0.0000
 11
-6.0300
 21
-2.6000
 31
0.0000
  0
LINE
  8
21
 10
-6.0300
 20
-1.6000
 30
0.0000
 11
-6.0300
 21
0.0000
 31
0.0000
  0
LINE
  8
21
 10
-2.6300
 20
-6.8000
 30
0.0000
 11
-2.6300
 21
-5.2000
 31
0.0000
  0
LINE
  8
21
 10
-2.6300
 20
-4.2000
 30
0.0000
 11
-2.6300
 21
-2.6000
 31
0.0000
  0
LINE
  8
21
 10
-2.6300
 20
-1.6000
 30
0.0000
 11
-2.6300
 21
0.0000
 31
0.0000
  0
LINE
  8
21
 10
59.3700
 20
-6.8000
 30
0.0000
 11
59.3700
 21
-5.2000
 31
0.0000
  0
LINE
  8
21
 10
59.3700
 20
-4.2000
 30
0.0000
 11
59.3700
 21
-2.6000
 31
0.0000
  0
LINE
  8
21
 10
59.3700
 20
-1.6000
 30
0.0000
 11
59.3700
 21
0.0000
 31
0.0000
  0
LINE
  8
21
 10
55.9700
 20
-6.8000
 30
0.0000
 11
55.9700
 21
-5.2000
 31
0.0000
  0
LINE
  8
21
 10
55.9700
 20
-4.2000
 30
0.0000
 11
55.9700
 21
-2.6000
 31
0.0000
  0
LINE
  8
21
 10
55.9700
 20
-1.6000
 30
0.0000
 11
55.9700
 21
0.0000
 31
0.0000
  0
LINE
  8
21
 10
43.3962
 20
8.3800
 30
0.0000
 11
43.3962
 21
23.6200
 31
0.0000
  0
LINE
  8
21
 10
43.3962
 20
23.6200
 30
0.0000
 11
44.8250
 21
23.6200
 31
0.0000
  0
LINE
  8
21
 10
44.8250
 20
23.6200
 30
0.0000
 11
46.2537
 21
23.6200
 31
0.0000
  0
LINE
  8
21
 10
46.2537
 20
23.6200
 30
0.0000
 11
52.6038
 21
23.6200
 31
0.0000
  0
LINE
  8
21
 10
52.6038
 20
23.6200
 30
0.0000
 11
52.6038
 21
17.2700
 31
0.0000
  0
LINE
  8
21
 10
52.6038
 20
17.2700
 30
0.0000
 11
52.6038
 21
14.7300
 31
0.0000
  0
LINE
  8
21
 10
52.6038
 20
14.7300
 30
0.0000
 11
52.6038
 21
8.3800
 31
0.0000
  0
LINE
  8
21
 10
52.6038
 20
8.3800
 30
0.0000
 11
46.2537
 21
8.3800
 31
0.0000
  0
LINE
  8
21
 10
46.2537
 20
8.3800
 30
0.0000
 11
44.8250
 21
8.3800
 31
0.0000
  0
LINE
  8
21
 10
44.8250
 20
8.3800
 30
0.0000
 11
43.3962
 21
8.3800
 31
0.0000
  0
LINE
  8
21
 10
44.6662
 20
9.6500
 30
0.0000
 11
44.6662
 21
22.3500
 31
0.0000
  0
LINE
  8
21
 10
44.6662
 20
22.3500
 30
0.0000
 11
44.8250
 21
22.3500
 31
0.0000
  0
LINE
  8
21
 10
44.8250
 20
22.3500
 30
0.0000
 11
46.2537
 21
22.3500
 31
0.0000
  0
LINE
  8
21
 10
46.2537
 20
22.3500
 30
0.0000
 11
51.3338
 21
22.3500
 31
0.0000
  0
LINE
  8
21
 10
51.3338
 20
22.3500
 30
0.0000
 11
51.3338
 21
17.2700
 31
0.0000
  0
LINE
  8
21
 10
51.3338
 20
17.2700
 30
0.0000
 11
51.3338
 21
14.7300
 31
0.0000
  0
LINE
  8
21
 10
51.3338
 20
14.7300
 30
0.0000
 11
51.3338
 21
9.6500
 31
0.0000
  0
LINE
  8
21
 10
51.3338
 20
9.6500
 30
0.0000
 11
46.2537
 21
9.6500
 31
0.0000
  0
LINE
  8
21
 10
46.2537
 20
9.6500
 30
0.0000
 11
44.8250
 21
9.6500
 31
0.0000
  0
LINE
  8
21
 10
44.8250
 20
9.6500
 30
0.0000
 11
44.6662
 21
9.6500
 31
0.0000
  0
LINE
  8
21
 10
51.3338
 20
14.7300
 30
0.0000
 11
51.8100
 21
14.7300
 31
0.0000
  0
LINE
  8
21
 10
51.8100
 20
14.7300
 30
0.0000
 11
52.6038
 21
14.7300
 31
0.0000
  0
LINE
  8
21
 10
51.3338
 20
17.2700
 30
0.0000
 11
51.8100
 21
17.2700
 31
0.0000
  0
LINE
  8
21
 10
51.8100
 20
17.2700
 30
0.0000
 11
52.6038
 21
17.2700
 31
0.0000
  0
LINE
  8
21
 10
44.8250
 20
22.3500
 30
0.0000
 11
44.8250
 21
22.8263
 31
0.0000
  0
LINE
  8
21
 10
44.8250
 20
22.8263
 30
0.0000
 11
44.8250
 21
23.6200
 31
0.0000
  0
LINE
  8
21
 10
44.8250
 20
9.6500
 30
0.0000
 11
44.8250
 21
9.1737
 31
0.0000
  0
LINE
  8
21
 10
44.8250
 20
9.1737
 30
0.0000
 11
44.8250
 21
8.3800
 31
0.0000
  0
LINE
  8
21
 10
46.2537
 20
9.6500
 30
0.0000
 11
46.2537
 21
9.1737
 31
0.0000
  0
LINE
  8
21
 10
46.2537
 20
9.1737
 30
0.0000
 11
46.2537
 21
8.3800
 31
0.0000
  0
LINE
  8
21
 10
46.2537
 20
22.3500
 30
0.0000
 11
46.2537
 21
22.8263
 31
0.0000
  0
LINE
  8
21
 10
46.2537
 20
22.8263
 30
0.0000
 11
46.2537
 21
23.6200
 31
0.0000
  0
LINE
  8
21
 10
44.1900
 20
9.1737
 30
0.0000
 11
44.1900
 21
22.8263
 31
0.0000
  0
LINE
  8
21
 10
51.8100
 20
17.2700
 30
0.0000
 11
51.8100
 21
22.8263
 31
0.0000
  0
LINE
  8
21
 10
46.2537
 20
22.8263
 30
0.0000
 11
51.8100
 21
22.8263
 31
0.0000
  0
LINE
  8
21
 10
44.1900
 20
9.1737
 30
0.0000
 11
44.8250
 21
9.1737
 31
0.0000
  0
LINE
  8
21
 10
46.2537
 20
9.1737
 30
0.0000
 11
51.8100
 21
9.1737
 31
0.0000
  0
LINE
  8
21
 10
51.8100
 20
14.7300
 30
0.0000
 11
51.8100
 21
9.1737
 31
0.0000
  0
LINE
  8
21
 10
44.8250
 20
22.8263
 30
0.0000
 11
44.1900
 21
22.8263
 31
0.0000
  0
LINE
  8
21
 10
51.3338
 20
22.3500
 30
0.0000
 11
51.8100
 21
22.8263
 31
0.0000
  0
LINE
  8
21
 10
44.6662
 20
22.3500
 30
0.0000
 11
44.1900
 21
22.8263
 31
0.0000
  0
LINE
  8
21
 10
44.1900
 20
9.1737
 30
0.0000
 11
44.6662
 21
9.6500
 31
0.0000
  0
LINE
  8
21
 10
51.8100
 20
9.1737
 30
0.0000
 11
51.3338
 21
9.6500
 31
0.0000
  0
ARC
  8
21
 10
43.3962
 20
10.2850
 30
0.0000
 40
0.6350
 50
90.0000
 51
270.0000
  0
ARC
  8
21
 10
43.3962
 20
21.7150
 30
0.0000
 40
0.6350
 50
90.0000
 51
270.0000
  0
ARC
  8
21
 10
43.3962
 20
15.9207
 30
0.0000
 40
0.5556
 50
90.0000
 51
270.0000
  0
LINE
  8
21
 10
50.3812
 20
13.4600
 30
0.0000
 11
51.0162
 21
12.8250
 31
0.0000
  0
LINE
  8
21
 10
51.0162
 20
12.8250
 30
0.0000
 11
51.0162
 21
12.9837
 31
0.0000
  0
LINE
  8
21
 10
51.0162
 20
13.7775
 30
0.0000
 11
51.0162
 21
13.9362
 31
0.0000
  0
LINE
  8
21
 10
51.0162
 20
13.9362
 30
0.0000
 11
51.0162
 21
14.0950
 31
0.0000
  0
LINE
  8
21
 10
51.0162
 20
14.0950
 30
0.0000
 11
50.3812
 21
13.4600
 31
0.0000
  0
LINE
  8
21
 10
51.0162
 20
13.9362
 30
0.0000
 11
50.5400
 21
13.4600
 31
0.0000
  0
LINE
  8
21
 10
50.5400
 20
13.4600
 30
0.0000
 11
51.0162
 21
12.9837
 31
0.0000
  0
LINE
  8
21
 10
51.0162
 20
12.9837
 30
0.0000
 11
51.0162
 21
13.1425
 31
0.0000
  0
LINE
  8
21
 10
51.0162
 20
13.6187
 30
0.0000
 11
51.0162
 21
13.7775
 31
0.0000
  0
LINE
  8
21
 10
51.0162
 20
13.7775
 30
0.0000
 11
50.6987
 21
13.4600
 31
0.0000
  0
LINE
  8
21
 10
50.6987
 20
13.4600
 30
0.0000
 11
51.0162
 21
13.1425
 31
0.0000
  0
LINE
  8
21
 10
51.0162
 20
13.1425
 30
0.0000
 11
51.0162
 21
13.3012
 31
0.0000
  0
LINE
  8
21
 10
51.0162
 20
13.3012
 30
0.0000
 11
51.0162
 21
13.6187
 31
0.0000
  0
LINE
  8
21
 10
51.0162
 20
13.6187
 30
0.0000
 11
50.8575
 21
13.4600
 31
0.0000
  0
LINE
  8
21
 10
50.8575
 20
13.4600
 30
0.0000
 11
51.0162
 21
13.3012
 31
0.0000
  0
INSERT
  8
51
  2
RECT
 10
46.7300
 20
13.4600
 30
0.0000
 41
0.5080
 42
0.5080
 43
1.0000
 50
90.0000
  0
INSERT
  8
51
  2
RECT
 10
49.2700
 20
13.4600
 30
0.0000
 41
0.5080
 42
0.5080
 43
1.0000
 50
90.0000
  0
INSERT
  8
51
  2
RECT
 10
46.7300
 20
16.0000
 30
0.0000
 41
0.5080
 42
0.5080
 43
1.0000
 50
90.0000
  0
INSERT
  8
51
  2
RECT
 10
49.2700
 20
16.0000
 30
0.0000
 41
0.5080
 42
0.5080
 43
1.0000
 50
90.0000
  0
INSERT
  8
51
  2
RECT
 10
46.7300
 20
18.5400
 30
0.0000
 41
0.5080
 42
0.5080
 43
1.0000
 50
90.0000
  0
INSERT
  8
51
  2
RECT
 10
49.2700
 20
18.5400
 30
0.0000
 41
0.5080
 42
0.5080
 43
1.0000
 50
90.0000
  0
LINE
  8
21
 10
43.3962
 20
24.8400
 30
0.0000
 11
43.3962
 21
45.1600
 31
0.0000
  0
LINE
  8
21
 10
43.3962
 20
45.1600
 30
0.0000
 11
44.8250
 21
45.1600
 31
0.0000
  0
LINE
  8
21
 10
44.8250
 20
45.1600
 30
0.0000
 11
46.2537
 21
45.1600
 31
0.0000
  0
LINE
  8
21
 10
46.2537
 20
45.1600
 30
0.0000
 11
52.6038
 21
45.1600
 31
0.0000
  0
LINE
  8
21
 10
52.6038
 20
45.1600
 30
0.0000
 11
52.6038
 21
37.0638
 31
0.0000
  0
LINE
  8
21
 10
52.6038
 20
37.0638
 30
0.0000
 11
52.6038
 21
32.9362
 31
0.0000
  0
LINE
  8
21
 10
52.6038
 20
32.9362
 30
0.0000
 11
52.6038
 21
24.8400
 31
0.0000
  0
LINE
  8
21
 10
52.6038
 20
24.8400
 30
0.0000
 11
46.2537
 21
24.8400
 31
0.0000
  0
LINE
  8
21
 10
46.2537
 20
24.8400
 30
0.0000
 11
44.8250
 21
24.8400
 31
0.0000
  0
LINE
  8
21
 10
44.8250
 20
24.8400
 30
0.0000
 11
43.3962
 21
24.8400
 31
0.0000
  0
LINE
  8
21
 10
44.6662
 20
26.1100
 30
0.0000
 11
44.6662
 21
43.8900
 31
0.0000
  0
LINE
  8
21
 10
44.6662
 20
43.8900
 30
0.0000
 11
44.8250
 21
43.8900
 31
0.0000
  0
LINE
  8
21
 10
44.8250
 20
43.8900
 30
0.0000
 11
46.2537
 21
43.8900
 31
0.0000
  0
LINE
  8
21
 10
46.2537
 20
43.8900
 30
0.0000
 11
51.3338
 21
43.8900
 31
0.0000
  0
LINE
  8
21
 10
51.3338
 20
43.8900
 30
0.0000
 11
51.3338
 21
37.0638
 31
0.0000
  0
LINE
  8
21
 10
51.3338
 20
37.0638
 30
0.0000
 11
51.3338
 21
32.9362
 31
0.0000
  0
LINE
  8
21
 10
51.3338
 20
32.9362
 30
0.0000
 11
51.3338
 21
26.1100
 31
0.0000
  0
LINE
  8
21
 10
51.3338
 20
26.1100
 30
0.0000
 11
46.2537
 21
26.1100
 31
0.0000
  0
LINE
  8
21
 10
46.2537
 20
26.1100
 30
0.0000
 11
44.8250
 21
26.1100
 31
0.0000
  0
LINE
  8
21
 10
44.8250
 20
26.1100
 30
0.0000
 11
44.6662
 21
26.1100
 31
0.0000
  0
LINE
  8
21
 10
51.3338
 20
32.9362
 30
0.0000
 11
51.8100
 21
32.9362
 31
0.0000
  0
LINE
  8
21
 10
51.8100
 20
32.9362
 30
0.0000
 11
52.6038
 21
32.9362
 31
0.0000
  0
LINE
  8
21
 10
51.3338
 20
37.0638
 30
0.0000
 11
51.8100
 21
37.0638
 31
0.0000
  0
LINE
  8
21
 10
51.8100
 20
37.0638
 30
0.0000
 11
52.6038
 21
37.0638
 31
0.0000
  0
LINE
  8
21
 10
44.8250
 20
43.8900
 30
0.0000
 11
44.8250
 21
44.3663
 31
0.0000
  0
LINE
  8
21
 10
44.8250
 20
44.3663
 30
0.0000
 11
44.8250
 21
45.1600
 31
0.0000
  0
LINE
  8
21
 10
44.8250
 20
26.1100
 30
0.0000
 11
44.8250
 21
25.6337
 31
0.0000
  0
LINE
  8
21
 10
44.8250
 20
25.6337
 30
0.0000
 11
44.8250
 21
24.8400
 31
0.0000
  0
LINE
  8
21
 10
46.2537
 20
26.1100
 30
0.0000
 11
46.2537
 21
25.6337
 31
0.0000
  0
LINE
  8
21
 10
46.2537
 20
25.6337
 30
0.0000
 11
46.2537
 21
24.8400
 31
0.0000
  0
LINE
  8
21
 10
46.2537
 20
43.8900
 30
0.0000
 11
46.2537
 21
44.3663
 31
0.0000
  0
LINE
  8
21
 10
46.2537
 20
44.3663
 30
0.0000
 11
46.2537
 21
45.1600
 31
0.0000
  0
LINE
  8
21
 10
44.1900
 20
25.6337
 30
0.0000
 11
44.1900
 21
44.3663
 31
0.0000
  0
LINE
  8
21
 10
51.8100
 20
37.0638
 30
0.0000
 11
51.8100
 21
44.3663
 31
0.0000
  0
LINE
  8
21
 10
46.2537
 20
44.3663
 30
0.0000
 11
51.8100
 21
44.3663
 31
0.0000
  0
LINE
  8
21
 10
44.1900
 20
25.6337
 30
0.0000
 11
44.8250
 21
25.6337
 31
0.0000
  0
LINE
  8
21
 10
46.2537
 20
25.6337
 30
0.0000
 11
51.8100
 21
25.6337
 31
0.0000
  0
LINE
  8
21
 10
51.8100
 20
32.9362
 30
0.0000
 11
51.8100
 21
25.6337
 31
0.0000
  0
LINE
  8
21
 10
44.8250
 20
44.3663
 30
0.0000
 11
44.1900
 21
44.3663
 31
0.0000
  0
LINE
  8
21
 10
51.3338
 20
43.8900
 30
0.0000
 11
51.8100
 21
44.3663
 31
0.0000
  0
LINE
  8
21
 10
44.6662
 20
43.8900
 30
0.0000
 11
44.1900
 21
44.3663
 31
0.0000
  0
LINE
  8
21
 10
44.1900
 20
25.6337
 30
0.0000
 11
44.6662
 21
26.1100
 31
0.0000
  0
LINE
  8
21
 10
51.8100
 20
25.6337
 30
0.0000
 11
51.3338
 21
26.1100
 31
0.0000
  0
ARC
  8
21
 10
43.3962
 20
26.7450
 30
0.0000
 40
0.6350
 50
90.0000
 51
270.0000
  0
ARC
  8
21
 10
43.3962
 20
43.2550
 30
0.0000
 40
0.6350
 50
90.0000
 51
270.0000
  0
ARC
  8
21
 10
43.3962
 20
34.9207
 30
0.0000
 40
0.5556
 50
90.0000
 51
270.0000
  0
LINE
  8
21
 10
50.3812
 20
29.9200
 30
0.0000
 11
51.0162
 21
29.2850
 31
0.0000
  0
LINE
  8
21
 10
51.0162
 20
29.2850
 30
0.0000
 11
51.0162
 21
29.4437
 31
0.0000
  0
LINE
  8
21
 10
51.0162
 20
30.2375
 30
0.0000
 11
51.0162
 21
30.3962
 31
0.0000
  0
LINE
  8
21
 10
51.0162
 20
30.3962
 30
0.0000
 11
51.0162
 21
30.5550
 31
0.0000
  0
LINE
  8
21
 10
51.0162
 20
30.5550
 30
0.0000
 11
50.3812
 21
29.9200
 31
0.0000
  0
LINE
  8
21
 10
51.0162
 20
30.3962
 30
0.0000
 11
50.5400
 21
29.9200
 31
0.0000
  0
LINE
  8
21
 10
50.5400
 20
29.9200
 30
0.0000
 11
51.0162
 21
29.4437
 31
0.0000
  0
LINE
  8
21
 10
51.0162
 20
29.4437
 30
0.0000
 11
51.0162
 21
29.6025
 31
0.0000
  0
LINE
  8
21
 10
51.0162
 20
30.0787
 30
0.0000
 11
51.0162
 21
30.2375
 31
0.0000
  0
LINE
  8
21
 10
51.0162
 20
30.2375
 30
0.0000
 11
50.6987
 21
29.9200
 31
0.0000
  0
LINE
  8
21
 10
50.6987
 20
29.9200
 30
0.0000
 11
51.0162
 21
29.6025
 31
0.0000
  0
LINE
  8
21
 10
51.0162
 20
29.6025
 30
0.0000
 11
51.0162
 21
29.7612
 31
0.0000
  0
LINE
  8
21
 10
51.0162
 20
29.7612
 30
0.0000
 11
51.0162
 21
30.0787
 31
0.0000
  0
LINE
  8
21
 10
51.0162
 20
30.0787
 30
0.0000
 11
50.8575
 21
29.9200
 31
0.0000
  0
LINE
  8
21
 10
50.8575
 20
29.9200
 30
0.0000
 11
51.0162
 21
29.7612
 31
0.0000
  0
INSERT
  8
51
  2
RECT
 10
49.2700
 20
29.9200
 30
0.0000
 41
0.5080
 42
0.5080
 43
1.0000
 50
90.0000
  0
INSERT
  8
51
  2
RECT
 10
46.7300
 20
29.9200
 30
0.0000
 41
0.5080
 42
0.5080
 43
1.0000
 50
90.0000
  0
INSERT
  8
51
  2
RECT
 10
46.7300
 20
32.4600
 30
0.0000
 41
0.5080
 42
0.5080
 43
1.0000
 50
90.0000
  0
INSERT
  8
51
  2
RECT
 10
49.2700
 20
32.4600
 30
0.0000
 41
0.5080
 42
0.5080
 43
1.0000
 50
90.0000
  0
INSERT
  8
51
  2
RECT
 10
46.7300
 20
35.0000
 30
0.0000
 41
0.5080
 42
0.5080
 43
1.0000
 50
90.0000
  0
INSERT
  8
51
  2
RECT
 10
49.2700
 20
35.0000
 30
0.0000
 41
0.5080
 42
0.5080
 43
1.0000
 50
90.0000
  0
INSERT
  8
51
  2
RECT
 10
46.7300
 20
37.5400
 30
0.0000
 41
0.5080
 42
0.5080
 43
1.0000
 50
90.0000
  0
INSERT
  8
51
  2
RECT
 10
49.2700
 20
37.5400
 30
0.0000
 41
0.5080
 42
0.5080
 43
1.0000
 50
90.0000
  0
INSERT
  8
51
  2
RECT
 10
46.7300
 20
40.0800
 30
0.0000
 41
0.5080
 42
0.5080
 43
1.0000
 50
90.0000
  0
INSERT
  8
51
  2
RECT
 10
49.2700
 20
40.0800
 30
0.0000
 41
0.5080
 42
0.5080
 43
1.0000
 50
90.0000
  0
LINE
  8
21
 10
37.1600
 20
45.3962
 30
0.0000
 11
16.8400
 21
45.3962
 31
0.0000
  0
LINE
  8
21
 10
16.8400
 20
45.3962
 30
0.0000
 11
16.8400
 21
46.8250
 31
0.0000
  0
LINE
  8
21
 10
16.8400
 20
46.8250
 30
0.0000
 11
16.8400
 21
48.2537
 31
0.0000
  0
LINE
  8
21
 10
16.8400
 20
48.2537
 30
0.0000
 11
16.8400
 21
54.6038
 31
0.0000
  0
LINE
  8
21
 10
16.8400
 20
54.6038
 30
0.0000
 11
24.9362
 21
54.6038
 31
0.0000
  0
LINE
  8
21
 10
24.9362
 20
54.6038
 30
0.0000
 11
29.0638
 21
54.6038
 31
0.0000
  0
LINE
  8
21
 10
29.0638
 20
54.6038
 30
0.0000
 11
37.1600
 21
54.6038
 31
0.0000
  0
LINE
  8
21
 10
37.1600
 20
54.6038
 30
0.0000
 11
37.1600
 21
48.2537
 31
0.0000
  0
LINE
  8
21
 10
37.1600
 20
48.2537
 30
0.0000
 11
37.1600
 21
46.8250
 31
0.0000
  0
LINE
  8
21
 10
37.1600
 20
46.8250
 30
0.0000
 11
37.1600
 21
45.3962
 31
0.0000
  0
LINE
  8
21
 10
35.8900
 20
46.6662
 30
0.0000
 11
18.1100
 21
46.6662
 31
0.0000
  0
LINE
  8
21
 10
18.1100
 20
46.6662
 30
0.0000
 11
18.1100
 21
46.8250
 31
0.0000
  0
LINE
  8
21
 10
18.1100
 20
46.8250
 30
0.0000
 11
18.1100
 21
48.2537
 31
0.0000
  0
LINE
  8
21
 10
18.1100
 20
48.2537
 30
0.0000
 11
18.1100
 21
53.3338
 31
0.0000
  0
LINE
  8
21
 10
18.1100
 20
53.3338
 30
0.0000
 11
24.9362
 21
53.3338
 31
0.0000
  0
LINE
  8
21
 10
24.9362
 20
53.3338
 30
0.0000
 11
29.0638
 21
53.3338
 31
0.0000
  0
LINE
  8
21
 10
29.0638
 20
53.3338
 30
0.0000
 11
35.8900
 21
53.3338
 31
0.0000
  0
LINE
  8
21
 10
35.8900
 20
53.3338
 30
0.0000
 11
35.8900
 21
48.2537
 31
0.0000
  0
LINE
  8
21
 10
35.8900
 20
48.2537
 30
0.0000
 11
35.8900
 21
46.8250
 31
0.0000
  0
LINE
  8
21
 10
35.8900
 20
46.8250
 30
0.0000
 11
35.8900
 21
46.6662
 31
0.0000
  0
LINE
  8
21
 10
29.0638
 20
53.3338
 30
0.0000
 11
29.0638
 21
53.8100
 31
0.0000
  0
LINE
  8
21
 10
29.0638
 20
53.8100
 30
0.0000
 11
29.0638
 21
54.6038
 31
0.0000
  0
LINE
  8
21
 10
24.9362
 20
53.3338
 30
0.0000
 11
24.9362
 21
53.8100
 31
0.0000
  0
LINE
  8
21
 10
24.9362
 20
53.8100
 30
0.0000
 11
24.9362
 21
54.6038
 31
0.0000
  0
LINE
  8
21
 10
18.1100
 20
46.8250
 30
0.0000
 11
17.6337
 21
46.8250
 31
0.0000
  0
LINE
  8
21
 10
17.6337
 20
46.8250
 30
0.0000
 11
16.8400
 21
46.8250
 31
0.0000
  0
LINE
  8
21
 10
35.8900
 20
46.8250
 30
0.0000
 11
36.3663
 21
46.8250
 31
0.0000
  0
LINE
  8
21
 10
36.3663
 20
46.8250
 30
0.0000
 11
37.1600
 21
46.8250
 31
0.0000
  0
LINE
  8
21
 10
35.8900
 20
48.2537
 30
0.0000
 11
36.3663
 21
48.2537
 31
0.0000
  0
LINE
  8
21
 10
36.3663
 20
48.2537
 30
0.0000
 11
37.1600
 21
48.2537
 31
0.0000
  0
LINE
  8
21
 10
18.1100
 20
48.2537
 30
0.0000
 11
17.6337
 21
48.2537
 31
0.0000
  0
LINE
  8
21
 10
17.6337
 20
48.2537
 30
0.0000
 11
16.8400
 21
48.2537
 31
0.0000
  0
LINE
  8
21
 10
36.3663
 20
46.1900
 30
0.0000
 11
17.6337
 21
46.1900
 31
0.0000
  0
LINE
  8
21
 10
24.9362
 20
53.8100
 30
0.0000
 11
17.6337
 21
53.8100
 31
0.0000
  0
LINE
  8
21
 10
17.6337
 20
48.2537
 30
0.0000
 11
17.6337
 21
53.8100
 31
0.0000
  0
LINE
  8
21
 10
36.3663
 20
46.1900
 30
0.0000
 11
36.3663
 21
46.8250
 31
0.0000
  0
LINE
  8
21
 10
36.3663
 20
48.2537
 30
0.0000
 11
36.3663
 21
53.8100
 31
0.0000
  0
LINE
  8
21
 10
29.0638
 20
53.8100
 30
0.0000
 11
36.3663
 21
53.8100
 31
0.0000
  0
LINE
  8
21
 10
17.6337
 20
46.8250
 30
0.0000
 11
17.6337
 21
46.1900
 31
0.0000
  0
LINE
  8
21
 10
18.1100
 20
53.3338
 30
0.0000
 11
17.6337
 21
53.8100
 31
0.0000
  0
LINE
  8
21
 10
18.1100
 20
46.6662
 30
0.0000
 11
17.6337
 21
46.1900
 31
0.0000
  0
LINE
  8
21
 10
36.3663
 20
46.1900
 30
0.0000
 11
35.8900
 21
46.6662
 31
0.0000
  0
LINE
  8
21
 10
36.3663
 20
53.8100
 30
0.0000
 11
35.8900
 21
53.3338
 31
0.0000
  0
ARC
  8
21
 10
35.2550
 20
45.3962
 30
0.0000
 40
0.6350
 50
180.0000
 51
0.0000
  0
ARC
  8
21
 10
18.7450
 20
45.3962
 30
0.0000
 40
0.6350
 50
180.0000
 51
0.0000
  0
ARC
  8
21
 10
27.0794
 20
45.3962
 30
0.0000
 40
0.5556
 50
180.0000
 51
0.0000
  0
LINE
  8
21
 10
32.0800
 20
52.3812
 30
0.0000
 11
32.7150
 21
53.0162
 31
0.0000
  0
LINE
  8
21
 10
32.7150
 20
53.0162
 30
0.0000
 11
32.5563
 21
53.0162
 31
0.0000
  0
LINE
  8
21
 10
31.7625
 20
53.0162
 30
0.0000
 11
31.6038
 21
53.0162
 31
0.0000
  0
LINE
  8
21
 10
31.6038
 20
53.0162
 30
0.0000
 11
31.4450
 21
53.0162
 31
0.0000
  0
LINE
  8
21
 10
31.4450
 20
53.0162
 30
0.0000
 11
32.0800
 21
52.3812
 31
0.0000
  0
LINE
  8
21
 10
31.6038
 20
53.0162
 30
0.0000
 11
32.0800
 21
52.5400
 31
0.0000
  0
LINE
  8
21
 10
32.0800
 20
52.5400
 30
0.0000
 11
32.5563
 21
53.0162
 31
0.0000
  0
LINE
  8
21
 10
32.5563
 20
53.0162
 30
0.0000
 11
32.3975
 21
53.0162
 31
0.0000
  0
LINE
  8
21
 10
31.9213
 20
53.0162
 30
0.0000
 11
31.7625
 21
53.0162
 31
0.0000
  0
LINE
  8
21
 10
31.7625
 20
53.0162
 30
0.0000
 11
32.0800
 21
52.6987
 31
0.0000
  0
LINE
  8
21
 10
32.0800
 20
52.6987
 30
0.0000
 11
32.3975
 21
53.0162
 31
0.0000
  0
LINE
  8
21
 10
32.3975
 20
53.0162
 30
0.0000
 11
32.2388
 21
53.0162
 31
0.0000
  0
LINE
  8
21
 10
32.2388
 20
53.0162
 30
0.0000
 11
31.9213
 21
53.0162
 31
0.0000
  0
LINE
  8
21
 10
31.9213
 20
53.0162
 30
0.0000
 11
32.0800
 21
52.8575
 31
0.0000
  0
LINE
  8
21
 10
32.0800
 20
52.8575
 30
0.0000
 11
32.2388
 21
53.0162
 31
0.0000
  0
INSERT
  8
51
  2
RECT
 10
32.0800
 20
51.2700
 30
0.0000
 41
0.5080
 42
0.5080
 43
1.0000
 50
180.0000
  0
INSERT
  8
51
  2
RECT
 10
32.0800
 20
48.7300
 30
0.0000
 41
0.5080
 42
0.5080
 43
1.0000
 50
180.0000
  0
INSERT
  8
51
  2
RECT
 10
29.5400
 20
48.7300
 30
0.0000
 41
0.5080
 42
0.5080
 43
1.0000
 50
180.0000
  0
INSERT
  8
51
  2
RECT
 10
29.5400
 20
51.2700
 30
0.0000
 41
0.5080
 42
0.5080
 43
1.0000
 50
180.0000
  0
INSERT
  8
51
  2
RECT
 10
27.0000
 20
48.7300
 30
0.0000
 41
0.5080
 42
0.5080
 43
1.0000
 50
180.0000
  0
INSERT
  8
51
  2
RECT
 10
27.0000
 20
51.2700
 30
0.0000
 41
0.5080
 42
0.5080
 43
1.0000
 50
180.0000
  0
INSERT
  8
51
  2
RECT
 10
24.4600
 20
48.7300
 30
0.0000
 41
0.5080
 42
0.5080
 43
1.0000
 50
180.0000
  0
INSERT
  8
51
  2
RECT
 10
24.4600
 20
51.2700
 30
0.0000
 41
0.5080
 42
0.5080
 43
1.0000
 50
180.0000
  0
INSERT
  8
51
  2
RECT
 10
21.9200
 20
48.7300
 30
0.0000
 41
0.5080
 42
0.5080
 43
1.0000
 50
180.0000
  0
INSERT
  8
51
  2
RECT
 10
21.9200
 20
51.2700
 30
0.0000
 41
0.5080
 42
0.5080
 43
1.0000
 50
180.0000
  0
LINE
  8
21
 10
1.4287
 20
8.4138
 30
0.0000
 11
1.4287
 21
28.7338
 31
0.0000
  0
LINE
  8
21
 10
1.4287
 20
28.7338
 30
0.0000
 11
2.8575
 21
28.7338
 31
0.0000
  0
LINE
  8
21
 10
2.8575
 20
28.7338
 30
0.0000
 11
4.2862
 21
28.7338
 31
0.0000
  0
LINE
  8
21
 10
4.2862
 20
28.7338
 30
0.0000
 11
10.6363
 21
28.7338
 31
0.0000
  0
LINE
  8
21
 10
10.6363
 20
28.7338
 30
0.0000
 11
10.6363
 21
20.6376
 31
0.0000
  0
LINE
  8
21
 10
10.6363
 20
20.6376
 30
0.0000
 11
10.6363
 21
16.5099
 31
0.0000
  0
LINE
  8
21
 10
10.6363
 20
16.5099
 30
0.0000
 11
10.6363
 21
8.4138
 31
0.0000
  0
LINE
  8
21
 10
10.6363
 20
8.4138
 30
0.0000
 11
4.2862
 21
8.4138
 31
0.0000
  0
LINE
  8
21
 10
4.2862
 20
8.4138
 30
0.0000
 11
2.8575
 21
8.4138
 31
0.0000
  0
LINE
  8
21
 10
2.8575
 20
8.4138
 30
0.0000
 11
1.4287
 21
8.4138
 31
0.0000
  0
LINE
  8
21
 10
2.6987
 20
9.6837
 30
0.0000
 11
2.6987
 21
27.4638
 31
0.0000
  0
LINE
  8
21
 10
2.6987
 20
27.4638
 30
0.0000
 11
2.8575
 21
27.4638
 31
0.0000
  0
LINE
  8
21
 10
2.8575
 20
27.4638
 30
0.0000
 11
4.2862
 21
27.4638
 31
0.0000
  0
LINE
  8
21
 10
4.2862
 20
27.4638
 30
0.0000
 11
9.3663
 21
27.4638
 31
0.0000
  0
LINE
  8
21
 10
9.3663
 20
27.4638
 30
0.0000
 11
9.3663
 21
20.6376
 31
0.0000
  0
LINE
  8
21
 10
9.3663
 20
20.6376
 30
0.0000
 11
9.3663
 21
16.5099
 31
0.0000
  0
LINE
  8
21
 10
9.3663
 20
16.5099
 30
0.0000
 11
9.3663
 21
9.6837
 31
0.0000
  0
LINE
  8
21
 10
9.3663
 20
9.6837
 30
0.0000
 11
4.2862
 21
9.6837
 31
0.0000
  0
LINE
  8
21
 10
4.2862
 20
9.6837
 30
0.0000
 11
2.8575
 21
9.6837
 31
0.0000
  0
LINE
  8
21
 10
2.8575
 20
9.6837
 30
0.0000
 11
2.6987
 21
9.6837
 31
0.0000
  0
LINE
  8
21
 10
9.3663
 20
16.5099
 30
0.0000
 11
9.8425
 21
16.5099
 31
0.0000
  0
LINE
  8
21
 10
9.8425
 20
16.5099
 30
0.0000
 11
10.6363
 21
16.5099
 31
0.0000
  0
LINE
  8
21
 10
9.3663
 20
20.6376
 30
0.0000
 11
9.8425
 21
20.6376
 31
0.0000
  0
LINE
  8
21
 10
9.8425
 20
20.6376
 30
0.0000
 11
10.6363
 21
20.6376
 31
0.0000
  0
LINE
  8
21
 10
2.8575
 20
27.4638
 30
0.0000
 11
2.8575
 21
27.9401
 31
0.0000
  0
LINE
  8
21
 10
2.8575
 20
27.9401
 30
0.0000
 11
2.8575
 21
28.7338
 31
0.0000
  0
LINE
  8
21
 10
2.8575
 20
9.6837
 30
0.0000
 11
2.8575
 21
9.2074
 31
0.0000
  0
LINE
  8
21
 10
2.8575
 20
9.2074
 30
0.0000
 11
2.8575
 21
8.4138
 31
0.0000
  0
LINE
  8
21
 10
4.2862
 20
9.6837
 30
0.0000
 11
4.2862
 21
9.2074
 31
0.0000
  0
LINE
  8
21
 10
4.2862
 20
9.2074
 30
0.0000
 11
4.2862
 21
8.4138
 31
0.0000
  0
LINE
  8
21
 10
4.2862
 20
27.4638
 30
0.0000
 11
4.2862
 21
27.9401
 31
0.0000
  0
LINE
  8
21
 10
4.2862
 20
27.9401
 30
0.0000
 11
4.2862
 21
28.7338
 31
0.0000
  0
LINE
  8
21
 10
2.2225
 20
9.2074
 30
0.0000
 11
2.2225
 21
27.9401
 31
0.0000
  0
LINE
  8
21
 10
9.8425
 20
20.6376
 30
0.0000
 11
9.8425
 21
27.9401
 31
0.0000
  0
LINE
  8
21
 10
4.2862
 20
27.9401
 30
0.0000
 11
9.8425
 21
27.9401
 31
0.0000
  0
LINE
  8
21
 10
2.2225
 20
9.2074
 30
0.0000
 11
2.8575
 21
9.2074
 31
0.0000
  0
LINE
  8
21
 10
4.2862
 20
9.2074
 30
0.0000
 11
9.8425
 21
9.2074
 31
0.0000
  0
LINE
  8
21
 10
9.8425
 20
16.5099
 30
0.0000
 11
9.8425
 21
9.2074
 31
0.0000
  0
LINE
  8
21
 10
2.8575
 20
27.9401
 30
0.0000
 11
2.2225
 21
27.9401
 31
0.0000
  0
LINE
  8
21
 10
9.3663
 20
27.4638
 30
0.0000
 11
9.8425
 21
27.9401
 31
0.0000
  0
LINE
  8
21
 10
2.6987
 20
27.4638
 30
0.0000
 11
2.2225
 21
27.9401
 31
0.0000
  0
LINE
  8
21
 10
2.2225
 20
9.2074
 30
0.0000
 11
2.6987
 21
9.6837
 31
0.0000
  0
LINE
  8
21
 10
9.8425
 20
9.2074
 30
0.0000
 11
9.3663
 21
9.6837
 31
0.0000
  0
ARC
  8
21
 10
1.4287
 20
10.3187
 30
0.0000
 40
0.6350
 50
90.0000
 51
270.0000
  0
ARC
  8
21
 10
1.4287
 20
26.8288
 30
0.0000
 40
0.6350
 50
90.0000
 51
270.0000
  0
ARC
  8
21
 10
1.4287
 20
18.4944
 30
0.0000
 40
0.5556
 50
90.0000
 51
270.0000
  0
LINE
  8
21
 10
8.4137
 20
13.4938
 30
0.0000
 11
9.0487
 21
12.8588
 31
0.0000
  0
LINE
  8
21
 10
9.0487
 20
12.8588
 30
0.0000
 11
9.0487
 21
13.0175
 31
0.0000
  0
LINE
  8
21
 10
9.0487
 20
13.8113
 30
0.0000
 11
9.0487
 21
13.9700
 31
0.0000
  0
LINE
  8
21
 10
9.0487
 20
13.9700
 30
0.0000
 11
9.0487
 21
14.1288
 31
0.0000
  0
LINE
  8
21
 10
9.0487
 20
14.1288
 30
0.0000
 11
8.4137
 21
13.4938
 31
0.0000
  0
LINE
  8
21
 10
9.0487
 20
13.9700
 30
0.0000
 11
8.5725
 21
13.4938
 31
0.0000
  0
LINE
  8
21
 10
8.5725
 20
13.4938
 30
0.0000
 11
9.0487
 21
13.0175
 31
0.0000
  0
LINE
  8
21
 10
9.0487
 20
13.0175
 30
0.0000
 11
9.0487
 21
13.1763
 31
0.0000
  0
LINE
  8
21
 10
9.0487
 20
13.6524
 30
0.0000
 11
9.0487
 21
13.8113
 31
0.0000
  0
LINE
  8
21
 10
9.0487
 20
13.8113
 30
0.0000
 11
8.7312
 21
13.4938
 31
0.0000
  0
LINE
  8
21
 10
8.7312
 20
13.4938
 30
0.0000
 11
9.0487
 21
13.1763
 31
0.0000
  0
LINE
  8
21
 10
9.0487
 20
13.1763
 30
0.0000
 11
9.0487
 21
13.3350
 31
0.0000
  0
LINE
  8
21
 10
9.0487
 20
13.3350
 30
0.0000
 11
9.0487
 21
13.6524
 31
0.0000
  0
LINE
  8
21
 10
9.0487
 20
13.6524
 30
0.0000
 11
8.8900
 21
13.4938
 31
0.0000
  0
LINE
  8
21
 10
8.8900
 20
13.4938
 30
0.0000
 11
9.0487
 21
13.3350
 31
0.0000
  0
INSERT
  8
51
  2
RECT
 10
7.3025
 20
13.4938
 30
0.0000
 41
0.5080
 42
0.5080
 43
1.0000
 50
90.0000
  0
INSERT
  8
51
  2
RECT
 10
4.7625
 20
13.4938
 30
0.0000
 41
0.5080
 42
0.5080
 43
1.0000
 50
90.0000
  0
INSERT
  8
51
  2
RECT
 10
4.7625
 20
16.0338
 30
0.0000
 41
0.5080
 42
0.5080
 43
1.0000
 50
90.0000
  0
INSERT
  8
51
  2
RECT
 10
7.3025
 20
16.0338
 30
0.0000
 41
0.5080
 42
0.5080
 43
1.0000
 50
90.0000
  0
INSERT
  8
51
  2
RECT
 10
4.7625
 20
18.5738
 30
0.0000
 41
0.5080
 42
0.5080
 43
1.0000
 50
90.0000
  0
INSERT
  8
51
  2
RECT
 10
7.3025
 20
18.5738
 30
0.0000
 41
0.5080
 42
0.5080
 43
1.0000
 50
90.0000
  0
INSERT
  8
51
  2
RECT
 10
4.7625
 20
21.1137
 30
0.0000
 41
0.5080
 42
0.5080
 43
1.0000
 50
90.0000
  0
INSERT
  8
51
  2
RECT
 10
7.3025
 20
21.1137
 30
0.0000
 41
0.5080
 42
0.5080
 43
1.0000
 50
90.0000
  0
INSERT
  8
51
  2
RECT
 10
4.7625
 20
23.6538
 30
0.0000
 41
0.5080
 42
0.5080
 43
1.0000
 50
90.0000
  0
INSERT
  8
51
  2
RECT
 10
7.3025
 20
23.6538
 30
0.0000
 41
0.5080
 42
0.5080
 43
1.0000
 50
90.0000
  0
LINE
  8
21
 10
44.7675
 20
50.8000
 30
0.0000
 11
43.4975
 21
50.8000
 31
0.0000
  0
LINE
  8
21
 10
43.4975
 20
50.8000
 30
0.0000
 11
42.8625
 21
51.4350
 31
0.0000
  0
LINE
  8
21
 10
42.8625
 20
51.4350
 30
0.0000
 11
42.8625
 21
52.7050
 31
0.0000
  0
LINE
  8
21
 10
42.8625
 20
52.7050
 30
0.0000
 11
43.4975
 21
53.3400
 31
0.0000
  0
LINE
  8
21
 10
42.8625
 20
51.4350
 30
0.0000
 11
42.2275
 21
50.8000
 31
0.0000
  0
LINE
  8
21
 10
42.2275
 20
50.8000
 30
0.0000
 11
40.9575
 21
50.8000
 31
0.0000
  0
LINE
  8
21
 10
40.9575
 20
50.8000
 30
0.0000
 11
40.3225
 21
51.4350
 31
0.0000
  0
LINE
  8
21
 10
40.3225
 20
51.4350
 30
0.0000
 11
40.3225
 21
52.7050
 31
0.0000
  0
LINE
  8
21
 10
40.3225
 20
52.7050
 30
0.0000
 11
40.9575
 21
53.3400
 31
0.0000
  0
LINE
  8
21
 10
40.9575
 20
53.3400
 30
0.0000
 11
42.2275
 21
53.3400
 31
0.0000
  0
LINE
  8
21
 10
42.2275
 20
53.3400
 30
0.0000
 11
42.8625
 21
52.7050
 31
0.0000
  0
LINE
  8
21
 10
45.4025
 20
51.4350
 30
0.0000
 11
45.4025
 21
52.7050
 31
0.0000
  0
LINE
  8
21
 10
44.7675
 20
50.8000
 30
0.0000
 11
45.4025
 21
51.4350
 31
0.0000
  0
LINE
  8
21
 10
45.4025
 20
52.7050
 30
0.0000
 11
45.4025
 21
53.3400
 31
0.0000
  0
LINE
  8
21
 10
45.4025
 20
53.3400
 30
0.0000
 11
44.7675
 21
53.3400
 31
0.0000
  0
LINE
  8
21
 10
43.4975
 20
53.3400
 30
0.0000
 11
44.7675
 21
53.3400
 31
0.0000
  0
LINE
  8
21
 10
40.3225
 20
51.4350
 30
0.0000
 11
39.6875
 21
50.8000
 31
0.0000
  0
LINE
  8
21
 10
39.6875
 20
50.8000
 30
0.0000
 11
38.4175
 21
50.8000
 31
0.0000
  0
LINE
  8
21
 10
38.4175
 20
50.8000
 30
0.0000
 11
37.7825
 21
51.4350
 31
0.0000
  0
LINE
  8
21
 10
37.7825
 20
51.4350
 30
0.0000
 11
37.7825
 21
52.7050
 31
0.0000
  0
LINE
  8
21
 10
37.7825
 20
52.7050
 30
0.0000
 11
38.4175
 21
53.3400
 31
0.0000
  0
LINE
  8
21
 10
38.4175
 20
53.3400
 30
0.0000
 11
39.6875
 21
53.3400
 31
0.0000
  0
LINE
  8
21
 10
39.6875
 20
53.3400
 30
0.0000
 11
40.3225
 21
52.7050
 31
0.0000
  0
INSERT
  8
51
  2
RECT
 10
41.5925
 20
52.0700
 30
0.0000
 41
0.5080
 42
0.5080
 43
1.0000
 50
180.0000
  0
INSERT
  8
51
  2
RECT
 10
44.1325
 20
52.0700
 30
0.0000
 41
0.5080
 42
0.5080
 43
1.0000
 50
180.0000
  0
INSERT
  8
51
  2
RECT
 10
39.0525
 20
52.0700
 30
0.0000
 41
0.5080
 42
0.5080
 43
1.0000
 50
180.0000
  0
LINE
  8
21
 10
15.0813
 20
50.8000
 30
0.0000
 11
13.8113
 21
50.8000
 31
0.0000
  0
LINE
  8
21
 10
13.8113
 20
50.8000
 30
0.0000
 11
13.1763
 21
51.4350
 31
0.0000
  0
LINE
  8
21
 10
13.1763
 20
51.4350
 30
0.0000
 11
13.1763
 21
52.7050
 31
0.0000
  0
LINE
  8
21
 10
13.1763
 20
52.7050
 30
0.0000
 11
13.8113
 21
53.3400
 31
0.0000
  0
LINE
  8
21
 10
13.1763
 20
51.4350
 30
0.0000
 11
12.5412
 21
50.8000
 31
0.0000
  0
LINE
  8
21
 10
12.5412
 20
50.8000
 30
0.0000
 11
11.2713
 21
50.8000
 31
0.0000
  0
LINE
  8
21
 10
11.2713
 20
50.8000
 30
0.0000
 11
10.6363
 21
51.4350
 31
0.0000
  0
LINE
  8
21
 10
10.6363
 20
51.4350
 30
0.0000
 11
10.6363
 21
52.7050
 31
0.0000
  0
LINE
  8
21
 10
10.6363
 20
52.7050
 30
0.0000
 11
11.2713
 21
53.3400
 31
0.0000
  0
LINE
  8
21
 10
11.2713
 20
53.3400
 30
0.0000
 11
12.5412
 21
53.3400
 31
0.0000
  0
LINE
  8
21
 10
12.5412
 20
53.3400
 30
0.0000
 11
13.1763
 21
52.7050
 31
0.0000
  0
LINE
  8
21
 10
15.7163
 20
51.4350
 30
0.0000
 11
15.7163
 21
52.7050
 31
0.0000
  0
LINE
  8
21
 10
15.0813
 20
50.8000
 30
0.0000
 11
15.7163
 21
51.4350
 31
0.0000
  0
LINE
  8
21
 10
15.7163
 20
52.7050
 30
0.0000
 11
15.7163
 21
53.3400
 31
0.0000
  0
LINE
  8
21
 10
15.7163
 20
53.3400
 30
0.0000
 11
15.0813
 21
53.3400
 31
0.0000
  0
LINE
  8
21
 10
13.8113
 20
53.3400
 30
0.0000
 11
15.0813
 21
53.3400
 31
0.0000
  0
LINE
  8
21
 10
10.6363
 20
51.4350
 30
0.0000
 11
10.0013
 21
50.8000
 31
0.0000
  0
LINE
  8
21
 10
10.0013
 20
50.8000
 30
0.0000
 11
8.7313
 21
50.8000
 31
0.0000
  0
LINE
  8
21
 10
8.7313
 20
50.8000
 30
0.0000
 11
8.0962
 21
51.4350
 31
0.0000
  0
LINE
  8
21
 10
8.0962
 20
51.4350
 30
0.0000
 11
8.0962
 21
52.7050
 31
0.0000
  0
LINE
  8
21
 10
8.0962
 20
52.7050
 30
0.0000
 11
8.7313
 21
53.3400
 31
0.0000
  0
LINE
  8
21
 10
8.7313
 20
53.3400
 30
0.0000
 11
10.0013
 21
53.3400
 31
0.0000
  0
LINE
  8
21
 10
10.0013
 20
53.3400
 30
0.0000
 11
10.6363
 21
52.7050
 31
0.0000
  0
INSERT
  8
51
  2
RECT
 10
11.9063
 20
52.0700
 30
0.0000
 41
0.5080
 42
0.5080
 43
1.0000
 50
180.0000
  0
INSERT
  8
51
  2
RECT
 10
14.4463
 20
52.0700
 30
0.0000
 41
0.5080
 42
0.5080
 43
1.0000
 50
180.0000
  0
INSERT
  8
51
  2
RECT
 10
9.3663
 20
52.0700
 30
0.0000
 41
0.5080
 42
0.5080
 43
1.0000
 50
180.0000
  0
LINE
  8
21
 10
5.0800
 20
35.0838
 30
0.0000
 11
5.0800
 21
33.8137
 31
0.0000
  0
LINE
  8
21
 10
5.0800
 20
33.8137
 30
0.0000
 11
4.4450
 21
33.1788
 31
0.0000
  0
LINE
  8
21
 10
4.4450
 20
33.1788
 30
0.0000
 11
3.1750
 21
33.1788
 31
0.0000
  0
LINE
  8
21
 10
3.1750
 20
33.1788
 30
0.0000
 11
2.5400
 21
33.8137
 31
0.0000
  0
LINE
  8
21
 10
4.4450
 20
35.7188
 30
0.0000
 11
3.1750
 21
35.7188
 31
0.0000
  0
LINE
  8
21
 10
5.0800
 20
35.0838
 30
0.0000
 11
4.4450
 21
35.7188
 31
0.0000
  0
LINE
  8
21
 10
3.1750
 20
35.7188
 30
0.0000
 11
2.5400
 21
35.7188
 31
0.0000
  0
LINE
  8
21
 10
2.5400
 20
35.7188
 30
0.0000
 11
2.5400
 21
35.0838
 31
0.0000
  0
LINE
  8
21
 10
2.5400
 20
33.8137
 30
0.0000
 11
2.5400
 21
35.0838
 31
0.0000
  0
LINE
  8
21
 10
4.4450
 20
33.1788
 30
0.0000
 11
5.0800
 21
32.5438
 31
0.0000
  0
LINE
  8
21
 10
5.0800
 20
32.5438
 30
0.0000
 11
5.0800
 21
31.2738
 31
0.0000
  0
LINE
  8
21
 10
5.0800
 20
31.2738
 30
0.0000
 11
4.4450
 21
30.6388
 31
0.0000
  0
LINE
  8
21
 10
4.4450
 20
30.6388
 30
0.0000
 11
3.1750
 21
30.6388
 31
0.0000
  0
LINE
  8
21
 10
3.1750
 20
30.6388
 30
0.0000
 11
2.5400
 21
31.2738
 31
0.0000
  0
LINE
  8
21
 10
2.5400
 20
31.2738
 30
0.0000
 11
2.5400
 21
32.5438
 31
0.0000
  0
LINE
  8
21
 10
2.5400
 20
32.5438
 30
0.0000
 11
3.1750
 21
33.1788
 31
0.0000
  0
INSERT
  8
51
  2
RECT
 10
3.8100
 20
34.4488
 30
0.0000
 41
0.5080
 42
0.5080
 43
1.0000
 50
270.0000
  0
INSERT
  8
51
  2
RECT
 10
3.8100
 20
31.9088
 30
0.0000
 41
0.5080
 42
0.5080
 43
1.0000
 50
270.0000
  0
LINE
  8
51
 10
42.8625
 20
47.2123
 30
0.0000
 11
42.8625
 21
46.4503
 31
0.0000
  0
LINE
  8
51
 10
42.8625
 20
47.7203
 30
0.0000
 11
42.8625
 21
48.4823
 31
0.0000
  0
CIRCLE
  8
21
 10
42.8625
 20
47.4663
 30
0.0000
 40
1.0160
  0
ARC
  8
21
 10
7.5000
 20
45.0000
 30
0.0000
 40
1.7000
 50
118.0725
 51
241.9275
  0
ARC
  8
21
 10
7.5000
 20
45.0000
 30
0.0000
 40
1.7000
 50
298.0725
 51
61.9275
  0
LINE
  8
51
 10
6.7000
 20
46.5000
 30
0.0000
 11
8.3000
 21
46.5000
 31
0.0000
  0
LINE
  8
21
 10
6.3887
 20
46.5875
 30
0.0000
 11
5.7538
 21
46.5875
 31
0.0000
  0
LINE
  8
21
 10
6.3887
 20
43.3538
 30
0.0000
 11
5.7538
 21
43.3538
 31
0.0000
  0
LINE
  8
21
 10
6.0713
 20
43.6713
 30
0.0000
 11
6.0713
 21
43.0363
 31
0.0000
  0
ARC
  8
21
 10
7.5000
 20
45.0000
 30
0.0000
 40
1.7000
 50
118.0725
 51
241.9275
  0
ARC
  8
21
 10
7.5000
 20
45.0000
 30
0.0000
 40
1.7000
 50
298.0725
 51
61.9275
  0
ARC
  8
51
 10
7.5000
 20
45.0000
 30
0.0000
 40
1.7000
 50
241.9275
 51
298.0725
  0
LINE
  8
51
 10
7.8619
 20
43.6381
 30
0.0000
 11
6.9221
 21
43.9514
 31
0.0000
  0
LINE
  8
51
 10
6.9221
 20
43.9514
 30
0.0000
 11
7.8619
 21
44.2646
 31
0.0000
  0
LINE
  8
51
 10
7.6270
 20
44.1863
 30
0.0000
 11
7.6270
 21
43.7164
 31
0.0000
  0
LINE
  8
51
 10
7.8619
 20
46.0558
 30
0.0000
 11
7.8619
 21
45.8469
 31
0.0000
  0
ARC
  8
51
 10
7.6531
 20
45.8469
 30
0.0000
 40
0.2088
 50
270.0000
 51
0.0000
  0
LINE
  8
51
 10
7.6531
 20
45.6381
 30
0.0000
 11
7.1309
 21
45.6381
 31
0.0000
  0
ARC
  8
51
 10
7.1309
 20
45.8469
 30
0.0000
 40
0.2089
 50
180.0017
 51
270.0000
  0
LINE
  8
51
 10
6.9221
 20
45.8469
 30
0.0000
 11
6.9221
 21
46.0558
 31
0.0000
  0
CIRCLE
  8
51
 10
7.5000
 20
45.0000
 30
0.0000
 40
1.5000
  0
ARC
  8
21
 10
13.0000
 20
45.0000
 30
0.0000
 40
1.7000
 50
118.0725
 51
241.9275
  0
ARC
  8
21
 10
13.0000
 20
45.0000
 30
0.0000
 40
1.7000
 50
298.0725
 51
61.9275
  0
LINE
  8
51
 10
12.2000
 20
46.5000
 30
0.0000
 11
13.8000
 21
46.5000
 31
0.0000
  0
LINE
  8
21
 10
11.8887
 20
46.5875
 30
0.0000
 11
11.2538
 21
46.5875
 31
0.0000
  0
LINE
  8
21
 10
11.8887
 20
43.3538
 30
0.0000
 11
11.2538
 21
43.3538
 31
0.0000
  0
LINE
  8
21
 10
11.5713
 20
43.6713
 30
0.0000
 11
11.5713
 21
43.0363
 31
0.0000
  0
ARC
  8
21
 10
13.0000
 20
45.0000
 30
0.0000
 40
1.7000
 50
118.0725
 51
241.9275
  0
ARC
  8
21
 10
13.0000
 20
45.0000
 30
0.0000
 40
1.7000
 50
298.0725
 51
61.9275
  0
ARC
  8
51
 10
13.0000
 20
45.0000
 30
0.0000
 40
1.7000
 50
241.9275
 51
298.0725
  0
LINE
  8
51
 10
13.3619
 20
43.6381
 30
0.0000
 11
12.4221
 21
43.9514
 31
0.0000
  0
LINE
  8
51
 10
12.4221
 20
43.9514
 30
0.0000
 11
13.3619
 21
44.2646
 31
0.0000
  0
LINE
  8
51
 10
13.1270
 20
44.1863
 30
0.0000
 11
13.1270
 21
43.7164
 31
0.0000
  0
LINE
  8
51
 10
13.3619
 20
46.0558
 30
0.0000
 11
13.3619
 21
45.8469
 31
0.0000
  0
ARC
  8
51
 10
13.1531
 20
45.8469
 30
0.0000
 40
0.2088
 50
270.0000
 51
0.0000
  0
LINE
  8
51
 10
13.1531
 20
45.6381
 30
0.0000
 11
12.6309
 21
45.6381
 31
0.0000
  0
ARC
  8
51
 10
12.6309
 20
45.8469
 30
0.0000
 40
0.2089
 50
180.0017
 51
270.0000
  0
LINE
  8
51
 10
12.4221
 20
45.8469
 30
0.0000
 11
12.4221
 21
46.0558
 31
0.0000
  0
CIRCLE
  8
51
 10
13.0000
 20
45.0000
 30
0.0000
 40
1.5000
  0
LINE
  8
21
 10
40.1638
 20
41.1163
 30
0.0000
 11
40.1638
 21
33.4963
 31
0.0000
  0
LINE
  8
21
 10
42.7037
 20
33.4963
 30
0.0000
 11
42.7037
 21
41.1163
 31
0.0000
  0
LINE
  8
21
 10
41.4338
 20
33.4963
 30
0.0000
 11
41.4338
 21
32.7343
 31
0.0000
  0
LINE
  8
21
 10
40.1638
 20
33.4963
 30
0.0000
 11
42.7037
 21
33.4963
 31
0.0000
  0
LINE
  8
21
 10
41.4338
 20
41.1163
 30
0.0000
 11
41.4338
 21
41.8783
 31
0.0000
  0
LINE
  8
21
 10
42.7037
 20
41.1163
 30
0.0000
 11
40.1638
 21
41.1163
 31
0.0000
  0
LINE
  8
21
 10
37.4650
 20
41.1163
 30
0.0000
 11
37.4650
 21
33.4963
 31
0.0000
  0
LINE
  8
21
 10
40.0050
 20
33.4963
 30
0.0000
 11
40.0050
 21
41.1163
 31
0.0000
  0
LINE
  8
21
 10
38.7350
 20
33.4963
 30
0.0000
 11
38.7350
 21
32.7343
 31
0.0000
  0
LINE
  8
21
 10
37.4650
 20
33.4963
 30
0.0000
 11
40.0050
 21
33.4963
 31
0.0000
  0
LINE
  8
21
 10
38.7350
 20
41.1163
 30
0.0000
 11
38.7350
 21
41.8783
 31
0.0000
  0
LINE
  8
21
 10
40.0050
 20
41.1163
 30
0.0000
 11
37.4650
 21
41.1163
 31
0.0000
  0
LINE
  8
21
 10
36.5125
 20
23.3362
 30
0.0000
 11
36.5125
 21
15.7163
 31
0.0000
  0
LINE
  8
21
 10
39.0525
 20
15.7163
 30
0.0000
 11
39.0525
 21
23.3362
 31
0.0000
  0
LINE
  8
21
 10
37.7825
 20
15.7163
 30
0.0000
 11
37.7825
 21
14.9543
 31
0.0000
  0
LINE
  8
21
 10
36.5125
 20
15.7163
 30
0.0000
 11
39.0525
 21
15.7163
 31
0.0000
  0
LINE
  8
21
 10
37.7825
 20
23.3362
 30
0.0000
 11
37.7825
 21
24.0983
 31
0.0000
  0
LINE
  8
21
 10
39.0525
 20
23.3362
 30
0.0000
 11
36.5125
 21
23.3362
 31
0.0000
  0
LINE
  8
21
 10
39.3700
 20
23.3362
 30
0.0000
 11
39.3700
 21
15.7163
 31
0.0000
  0
LINE
  8
21
 10
41.9100
 20
15.7163
 30
0.0000
 11
41.9100
 21
23.3362
 31
0.0000
  0
LINE
  8
21
 10
40.6400
 20
15.7163
 30
0.0000
 11
40.6400
 21
14.9543
 31
0.0000
  0
LINE
  8
21
 10
39.3700
 20
15.7163
 30
0.0000
 11
41.9100
 21
15.7163
 31
0.0000
  0
LINE
  8
21
 10
40.6400
 20
23.3362
 30
0.0000
 11
40.6400
 21
24.0983
 31
0.0000
  0
LINE
  8
21
 10
41.9100
 20
23.3362
 30
0.0000
 11
39.3700
 21
23.3362
 31
0.0000
  0
LINE
  8
21
 10
36.3538
 20
15.7163
 30
0.0000
 11
36.3538
 21
23.3362
 31
0.0000
  0
LINE
  8
21
 10
33.8137
 20
23.3362
 30
0.0000
 11
33.8137
 21
15.7163
 31
0.0000
  0
LINE
  8
21
 10
35.0838
 20
23.3362
 30
0.0000
 11
35.0838
 21
24.0983
 31
0.0000
  0
LINE
  8
21
 10
36.3538
 20
23.3362
 30
0.0000
 11
33.8137
 21
23.3362
 31
0.0000
  0
LINE
  8
21
 10
35.0838
 20
15.7163
 30
0.0000
 11
35.0838
 21
14.9543
 31
0.0000
  0
LINE
  8
21
 10
33.8137
 20
15.7163
 30
0.0000
 11
36.3538
 21
15.7163
 31
0.0000
  0
LINE
  8
21
 10
34.7662
 20
41.2275
 30
0.0000
 11
34.7662
 21
33.6075
 31
0.0000
  0
LINE
  8
21
 10
37.3062
 20
33.6075
 30
0.0000
 11
37.3062
 21
41.2275
 31
0.0000
  0
LINE
  8
21
 10
36.0363
 20
33.6075
 30
0.0000
 11
36.0363
 21
32.8455
 31
0.0000
  0
LINE
  8
21
 10
34.7662
 20
33.6075
 30
0.0000
 11
37.3062
 21
33.6075
 31
0.0000
  0
LINE
  8
21
 10
36.0363
 20
41.2275
 30
0.0000
 11
36.0363
 21
41.9895
 31
0.0000
  0
LINE
  8
21
 10
37.3062
 20
41.2275
 30
0.0000
 11
34.7662
 21
41.2275
 31
0.0000
  0
LINE
  8
21
 10
14.9225
 20
20.6375
 30
0.0000
 11
14.9225
 21
28.2575
 31
0.0000
  0
LINE
  8
21
 10
12.3825
 20
28.2575
 30
0.0000
 11
12.3825
 21
20.6375
 31
0.0000
  0
LINE
  8
21
 10
13.6525
 20
28.2575
 30
0.0000
 11
13.6525
 21
29.0195
 31
0.0000
  0
LINE
  8
21
 10
14.9225
 20
28.2575
 30
0.0000
 11
12.3825
 21
28.2575
 31
0.0000
  0
LINE
  8
21
 10
13.6525
 20
20.6375
 30
0.0000
 11
13.6525
 21
19.8755
 31
0.0000
  0
LINE
  8
21
 10
12.3825
 20
20.6375
 30
0.0000
 11
14.9225
 21
20.6375
 31
0.0000
  0
LINE
  8
21
 10
5.5563
 20
36.3538
 30
0.0000
 11
13.1763
 21
36.3538
 31
0.0000
  0
LINE
  8
21
 10
13.1763
 20
38.8938
 30
0.0000
 11
5.5563
 21
38.8938
 31
0.0000
  0
LINE
  8
21
 10
13.1763
 20
37.6238
 30
0.0000
 11
13.9383
 21
37.6238
 31
0.0000
  0
LINE
  8
21
 10
13.1763
 20
36.3538
 30
0.0000
 11
13.1763
 21
38.8938
 31
0.0000
  0
LINE
  8
21
 10
5.5563
 20
37.6238
 30
0.0000
 11
4.7942
 21
37.6238
 31
0.0000
  0
LINE
  8
21
 10
5.5563
 20
38.8938
 30
0.0000
 11
5.5563
 21
36.3538
 31
0.0000
  0
LINE
  8
21
 10
5.5563
 20
39.0525
 30
0.0000
 11
13.1763
 21
39.0525
 31
0.0000
  0
LINE
  8
21
 10
13.1763
 20
41.5925
 30
0.0000
 11
5.5563
 21
41.5925
 31
0.0000
  0
LINE
  8
21
 10
13.1763
 20
40.3225
 30
0.0000
 11
13.9383
 21
40.3225
 31
0.0000
  0
LINE
  8
21
 10
13.1763
 20
39.0525
 30
0.0000
 11
13.1763
 21
41.5925
 31
0.0000
  0
LINE
  8
21
 10
5.5563
 20
40.3225
 30
0.0000
 11
4.7942
 21
40.3225
 31
0.0000
  0
LINE
  8
21
 10
5.5563
 20
41.5925
 30
0.0000
 11
5.5563
 21
39.0525
 31
0.0000
  0
LINE
  8
21
 10
1.3589
 20
64.9102
 30
0.0000
 11
1.3589
 21
66.2564
 31
0.0000
  0
LINE
  8
21
 10
1.3589
 20
66.2564
 30
0.0000
 11
1.7328
 21
66.2564
 31
0.0000
  0
ARC
  8
21
 10
1.7328
 20
66.0320
 30
0.0000
 40
0.2244
 50
0.0000
 51
90.0000
  0
LINE
  8
21
 10
1.9572
 20
66.0320
 30
0.0000
 11
1.9572
 21
65.5833
 31
0.0000
  0
ARC
  8
21
 10
1.7328
 20
65.5833
 30
0.0000
 40
0.2244
 50
270.0008
 51
0.0000
  0
LINE
  8
21
 10
1.7328
 20
65.3589
 30
0.0000
 11
1.3589
 21
65.3589
 31
0.0000
  0
LINE
  8
21
 10
2.5485
 20
66.7051
 30
0.0000
 11
2.5485
 21
65.5833
 31
0.0000
  0
ARC
  8
21
 10
2.7729
 20
65.5833
 30
0.0000
 40
0.2244
 50
180.0000
 51
270.0000
  0
LINE
  8
21
 10
3.8564
 20
65.8824
 30
0.0000
 11
3.5199
 21
65.8824
 31
0.0000
  0
ARC
  8
21
 10
3.5199
 20
65.6207
 30
0.0000
 40
0.2618
 50
90.0000
 51
270.0000
  0
LINE
  8
21
 10
3.5199
 20
65.3589
 30
0.0000
 11
3.8564
 21
65.3589
 31
0.0000
  0
LINE
  8
21
 10
3.8564
 20
65.3589
 30
0.0000
 11
3.8564
 21
66.0320
 31
0.0000
  0
ARC
  8
21
 10
3.6320
 20
66.0320
 30
0.0000
 40
0.2244
 50
0.0000
 51
90.0000
  0
LINE
  8
21
 10
3.6320
 20
66.2564
 30
0.0000
 11
3.3329
 21
66.2564
 31
0.0000
  0
LINE
  8
21
 10
5.0241
 20
65.3589
 30
0.0000
 11
4.7250
 21
65.3589
 31
0.0000
  0
ARC
  8
21
 10
4.7250
 20
65.5833
 30
0.0000
 40
0.2244
 50
180.0000
 51
270.0000
  0
LINE
  8
21
 10
4.5006
 20
65.5833
 30
0.0000
 11
4.5006
 21
66.0320
 31
0.0000
  0
ARC
  8
21
 10
4.7250
 20
66.0320
 30
0.0000
 40
0.2244
 50
89.9992
 51
180.0000
  0
LINE
  8
21
 10
4.7250
 20
66.2564
 30
0.0000
 11
5.0241
 21
66.2564
 31
0.0000
  0
LINE
  8
21
 10
6.1464
 20
65.3589
 30
0.0000
 11
5.7725
 21
65.3589
 31
0.0000
  0
ARC
  8
21
 10
5.7725
 20
65.5833
 30
0.0000
 40
0.2244
 50
180.0000
 51
270.0000
  0
LINE
  8
21
 10
5.5481
 20
65.5833
 30
0.0000
 11
5.5481
 21
65.9572
 31
0.0000
  0
ARC
  8
21
 10
5.8473
 20
65.9572
 30
0.0000
 40
0.2992
 50
0.0000
 51
180.0000
  0
LINE
  8
21
 10
6.1464
 20
65.9572
 30
0.0000
 11
6.1464
 21
65.8076
 31
0.0000
  0
LINE
  8
21
 10
6.1464
 20
65.8076
 30
0.0000
 11
5.5481
 21
65.8076
 31
0.0000
  0
LINE
  8
21
 10
6.8130
 20
65.3589
 30
0.0000
 11
6.8130
 21
66.2564
 31
0.0000
  0
LINE
  8
21
 10
6.8130
 20
66.2564
 30
0.0000
 11
7.4861
 21
66.2564
 31
0.0000
  0
ARC
  8
21
 10
7.4861
 20
66.0320
 30
0.0000
 40
0.2244
 50
0.0000
 51
90.0000
  0
LINE
  8
21
 10
7.7105
 20
66.0320
 30
0.0000
 11
7.7105
 21
65.3589
 31
0.0000
  0
LINE
  8
21
 10
7.2617
 20
65.3589
 30
0.0000
 11
7.2617
 21
66.2564
 31
0.0000
  0
LINE
  8
21
 10
8.9754
 20
65.3589
 30
0.0000
 11
8.6014
 21
65.3589
 31
0.0000
  0
ARC
  8
21
 10
8.6014
 20
65.5833
 30
0.0000
 40
0.2244
 50
180.0000
 51
270.0000
  0
LINE
  8
21
 10
8.3771
 20
65.5833
 30
0.0000
 11
8.3771
 21
65.9572
 31
0.0000
  0
ARC
  8
21
 10
8.6762
 20
65.9572
 30
0.0000
 40
0.2992
 50
0.0000
 51
180.0000
  0
LINE
  8
21
 10
8.9754
 20
65.9572
 30
0.0000
 11
8.9754
 21
65.8076
 31
0.0000
  0
LINE
  8
21
 10
8.9754
 20
65.8076
 30
0.0000
 11
8.3771
 21
65.8076
 31
0.0000
  0
LINE
  8
21
 10
9.6090
 20
65.3589
 30
0.0000
 11
9.6090
 21
66.2564
 31
0.0000
  0
LINE
  8
21
 10
9.6090
 20
66.2564
 30
0.0000
 11
9.9830
 21
66.2564
 31
0.0000
  0
ARC
  8
21
 10
9.9830
 20
66.0320
 30
0.0000
 40
0.2244
 50
0.0000
 51
90.0000
  0
LINE
  8
21
 10
10.2074
 20
66.0320
 30
0.0000
 11
10.2074
 21
65.3589
 31
0.0000
  0
LINE
  8
21
 10
10.7198
 20
66.2564
 30
0.0000
 11
11.1685
 21
66.2564
 31
0.0000
  0
LINE
  8
21
 10
10.8694
 20
66.7051
 30
0.0000
 11
10.8694
 21
65.5833
 31
0.0000
  0
ARC
  8
21
 10
11.0937
 20
65.5833
 30
0.0000
 40
0.2244
 50
180.0000
 51
270.0000
  0
LINE
  8
21
 10
11.0937
 20
65.3589
 30
0.0000
 11
11.1685
 21
65.3589
 31
0.0000
  0
LINE
  8
21
 10
12.9635
 20
65.3589
 30
0.0000
 11
12.6643
 21
65.3589
 31
0.0000
  0
ARC
  8
21
 10
12.6643
 20
65.5833
 30
0.0000
 40
0.2244
 50
180.0000
 51
270.0000
  0
LINE
  8
21
 10
12.4400
 20
65.5833
 30
0.0000
 11
12.4400
 21
66.0320
 31
0.0000
  0
ARC
  8
21
 10
12.6643
 20
66.0320
 30
0.0000
 40
0.2244
 50
89.9992
 51
180.0000
  0
LINE
  8
21
 10
12.6643
 20
66.2564
 30
0.0000
 11
12.9635
 21
66.2564
 31
0.0000
  0
LINE
  8
21
 10
13.4875
 20
65.6581
 30
0.0000
 11
13.4875
 21
65.9572
 31
0.0000
  0
ARC
  8
21
 10
13.7866
 20
65.9572
 30
0.0000
 40
0.2992
 50
0.0000
 51
180.0000
  0
LINE
  8
21
 10
14.0858
 20
65.9572
 30
0.0000
 11
14.0858
 21
65.6581
 31
0.0000
  0
ARC
  8
21
 10
13.7866
 20
65.6581
 30
0.0000
 40
0.2992
 50
180.0000
 51
0.0000
  0
LINE
  8
21
 10
14.7524
 20
65.3589
 30
0.0000
 11
14.7524
 21
66.2564
 31
0.0000
  0
LINE
  8
21
 10
14.7524
 20
66.2564
 30
0.0000
 11
15.4255
 21
66.2564
 31
0.0000
  0
ARC
  8
21
 10
15.4255
 20
66.0320
 30
0.0000
 40
0.2244
 50
0.0000
 51
90.0000
  0
LINE
  8
21
 10
15.6498
 20
66.0320
 30
0.0000
 11
15.6498
 21
65.3589
 31
0.0000
  0
LINE
  8
21
 10
15.2011
 20
65.3589
 30
0.0000
 11
15.2011
 21
66.2564
 31
0.0000
  0
LINE
  8
21
 10
16.3706
 20
64.9102
 30
0.0000
 11
16.3706
 21
66.2564
 31
0.0000
  0
LINE
  8
21
 10
16.3706
 20
66.2564
 30
0.0000
 11
16.7446
 21
66.2564
 31
0.0000
  0
ARC
  8
21
 10
16.7446
 20
66.0320
 30
0.0000
 40
0.2244
 50
0.0000
 51
90.0000
  0
LINE
  8
21
 10
16.9690
 20
66.0320
 30
0.0000
 11
16.9690
 21
65.5833
 31
0.0000
  0
ARC
  8
21
 10
16.7446
 20
65.5833
 30
0.0000
 40
0.2244
 50
270.0008
 51
0.0000
  0
LINE
  8
21
 10
16.7446
 20
65.3589
 30
0.0000
 11
16.3706
 21
65.3589
 31
0.0000
  0
LINE
  8
21
 10
17.5484
 20
65.6581
 30
0.0000
 11
17.5484
 21
65.9572
 31
0.0000
  0
ARC
  8
21
 10
17.8475
 20
65.9572
 30
0.0000
 40
0.2992
 50
0.0000
 51
180.0000
  0
LINE
  8
21
 10
18.1467
 20
65.9572
 30
0.0000
 11
18.1467
 21
65.6581
 31
0.0000
  0
ARC
  8
21
 10
17.8475
 20
65.6581
 30
0.0000
 40
0.2992
 50
180.0000
 51
0.0000
  0
LINE
  8
21
 10
18.7804
 20
65.3589
 30
0.0000
 11
18.7804
 21
66.2564
 31
0.0000
  0
LINE
  8
21
 10
18.7804
 20
66.2564
 30
0.0000
 11
19.1543
 21
66.2564
 31
0.0000
  0
ARC
  8
21
 10
19.1543
 20
66.0320
 30
0.0000
 40
0.2244
 50
0.0000
 51
90.0000
  0
LINE
  8
21
 10
19.3787
 20
66.0320
 30
0.0000
 11
19.3787
 21
65.3589
 31
0.0000
  0
LINE
  8
21
 10
20.6106
 20
65.3589
 30
0.0000
 11
20.2367
 21
65.3589
 31
0.0000
  0
ARC
  8
21
 10
20.2367
 20
65.5833
 30
0.0000
 40
0.2244
 50
180.0000
 51
270.0000
  0
LINE
  8
21
 10
20.0123
 20
65.5833
 30
0.0000
 11
20.0123
 21
65.9572
 31
0.0000
  0
ARC
  8
21
 10
20.3115
 20
65.9572
 30
0.0000
 40
0.2992
 50
0.0000
 51
180.0000
  0
LINE
  8
21
 10
20.6106
 20
65.9572
 30
0.0000
 11
20.6106
 21
65.8076
 31
0.0000
  0
LINE
  8
21
 10
20.6106
 20
65.8076
 30
0.0000
 11
20.0123
 21
65.8076
 31
0.0000
  0
LINE
  8
21
 10
21.2443
 20
65.3589
 30
0.0000
 11
21.2443
 21
66.2564
 31
0.0000
  0
LINE
  8
21
 10
21.2443
 20
66.2564
 30
0.0000
 11
21.6182
 21
66.2564
 31
0.0000
  0
ARC
  8
21
 10
21.6182
 20
66.0320
 30
0.0000
 40
0.2244
 50
0.0000
 51
90.0000
  0
LINE
  8
21
 10
21.8426
 20
66.0320
 30
0.0000
 11
21.8426
 21
65.3589
 31
0.0000
  0
LINE
  8
21
 10
22.3550
 20
66.2564
 30
0.0000
 11
22.8038
 21
66.2564
 31
0.0000
  0
LINE
  8
21
 10
22.5046
 20
66.7051
 30
0.0000
 11
22.5046
 21
65.5833
 31
0.0000
  0
ARC
  8
21
 10
22.7290
 20
65.5833
 30
0.0000
 40
0.2244
 50
180.0000
 51
270.0000
  0
LINE
  8
21
 10
22.7290
 20
65.3589
 30
0.0000
 11
22.8038
 21
65.3589
 31
0.0000
  0
LINE
  8
21
 10
24.5594
 20
65.7328
 30
0.0000
 11
24.1854
 21
65.8824
 31
0.0000
  0
ARC
  8
21
 10
24.2574
 20
66.0625
 30
0.0000
 40
0.1939
 50
89.1810
 51
248.1986
  0
ARC
  8
21
 10
24.2481
 20
65.4071
 30
0.0000
 40
0.8493
 50
65.7609
 51
89.1810
  0
ARC
  8
21
 10
24.4874
 20
65.5528
 30
0.0000
 40
0.1939
 50
269.1810
 51
68.1986
  0
ARC
  8
21
 10
24.5027
 20
66.6272
 30
0.0000
 40
1.2684
 50
250.2096
 51
269.1810
  0
LINE
  8
21
 10
25.2393
 20
65.3589
 30
0.0000
 11
25.2393
 21
66.2564
 31
0.0000
  0
LINE
  8
21
 10
25.2019
 20
66.6303
 30
0.0000
 11
25.2019
 21
66.7051
 31
0.0000
  0
LINE
  8
21
 10
25.2019
 20
66.7051
 30
0.0000
 11
25.2767
 21
66.7051
 31
0.0000
  0
LINE
  8
21
 10
25.2767
 20
66.7051
 30
0.0000
 11
25.2767
 21
66.6303
 31
0.0000
  0
LINE
  8
21
 10
25.2767
 20
66.6303
 30
0.0000
 11
25.2019
 21
66.6303
 31
0.0000
  0
LINE
  8
21
 10
26.3968
 20
66.7051
 30
0.0000
 11
26.3968
 21
65.3589
 31
0.0000
  0
LINE
  8
21
 10
26.3968
 20
65.3589
 30
0.0000
 11
26.0229
 21
65.3589
 31
0.0000
  0
ARC
  8
21
 10
26.0229
 20
65.5833
 30
0.0000
 40
0.2244
 50
180.0000
 51
270.0000
  0
LINE
  8
21
 10
25.7985
 20
65.5833
 30
0.0000
 11
25.7985
 21
66.0320
 31
0.0000
  0
ARC
  8
21
 10
26.0229
 20
66.0320
 30
0.0000
 40
0.2244
 50
89.9992
 51
180.0000
  0
LINE
  8
21
 10
26.0229
 20
66.2564
 30
0.0000
 11
26.3968
 21
66.2564
 31
0.0000
  0
LINE
  8
21
 10
27.6374
 20
65.3589
 30
0.0000
 11
27.2635
 21
65.3589
 31
0.0000
  0
ARC
  8
21
 10
27.2635
 20
65.5833
 30
0.0000
 40
0.2244
 50
180.0000
 51
270.0000
  0
LINE
  8
21
 10
27.0391
 20
65.5833
 30
0.0000
 11
27.0391
 21
65.9572
 31
0.0000
  0
ARC
  8
21
 10
27.3382
 20
65.9572
 30
0.0000
 40
0.2992
 50
0.0000
 51
180.0000
  0
LINE
  8
21
 10
27.6374
 20
65.9572
 30
0.0000
 11
27.6374
 21
65.8076
 31
0.0000
  0
LINE
  8
21
 10
27.6374
 20
65.8076
 30
0.0000
 11
27.0391
 21
65.8076
 31
0.0000
  0
ENDSEC
  0
EOF
